<!-- Generated by IcoMoon.io -->
<svg version="1.1" xmlns="http://www.w3.org/2000/svg" width="1024" height="1024" viewBox="0 0 1024 1024">
<path d="M1007.328 97.166l-813.13 813.059h602.221c31.418 0 56.887 25.469 56.887 56.887s-25.469 56.887-56.887 56.887v0h-739.532c-31.418 0-56.887-25.469-56.887-56.887v0-739.532c0-31.418 25.469-56.887 56.887-56.887s56.887 25.469 56.887 56.887v0 602.221l813.059-813.13c10.3-10.3 24.531-16.671 40.248-16.671 31.435 0 56.919 25.484 56.919 56.919 0 15.717-6.371 29.948-16.671 40.248v0z"></path>
</svg>
