<!-- Generated by IcoMoon.io -->
<svg version="1.1" xmlns="http://www.w3.org/2000/svg" width="32" height="32" viewBox="0 0 32 32">
<title>arrow-right</title>
<path d="M20.465 32h-8.93c-8.082 0-11.535-3.453-11.535-11.535v-8.93c0-8.082 3.453-11.535 11.535-11.535h8.93c8.082 0 11.535 3.453 11.535 11.535v8.93c0 8.082-3.453 11.535-11.535 11.535zM11.535 2.233c-6.861 0-9.302 2.441-9.302 9.302v8.93c0 6.861 2.441 9.302 9.302 9.302h8.93c6.861 0 9.302-2.441 9.302-9.302v-8.93c0-6.861-2.441-9.302-9.302-9.302h-8.93z"></path>
<path d="M14.124 22.371c-0.283 0-0.566-0.104-0.789-0.327-0.432-0.432-0.432-1.146 0-1.578l4.465-4.465-4.465-4.465c-0.432-0.432-0.432-1.146 0-1.578s1.146-0.432 1.578 0l5.254 5.254c0.432 0.432 0.432 1.146 0 1.578l-5.254 5.254c-0.223 0.223-0.506 0.327-0.789 0.327z"></path>
</svg>
