<!-- Generated by IcoMoon.io -->
<svg version="1.1" xmlns="http://www.w3.org/2000/svg" width="32" height="32" viewBox="0 0 32 32">
<title>arrow-circle-right</title>
<path d="M16 32c-8.826 0-16-7.174-16-16s7.174-16 16-16c8.826 0 16 7.174 16 16s-7.174 16-16 16zM16 2.233c-7.591 0-13.767 6.177-13.767 13.767s6.177 13.767 13.767 13.767c7.591 0 13.767-6.177 13.767-13.767s-6.177-13.767-13.767-13.767z"></path>
<path d="M14.124 22.371c-0.283 0-0.566-0.104-0.789-0.327-0.432-0.432-0.432-1.146 0-1.578l4.465-4.465-4.465-4.465c-0.432-0.432-0.432-1.146 0-1.578s1.146-0.432 1.578 0l5.254 5.254c0.432 0.432 0.432 1.146 0 1.578l-5.254 5.254c-0.223 0.223-0.506 0.327-0.789 0.327z"></path>
</svg>
