<!-- Generated by IcoMoon.io -->
<svg version="1.1" xmlns="http://www.w3.org/2000/svg" width="32" height="32" viewBox="0 0 32 32">
<title>arrow-up-3</title>
<path d="M26.501 13.091c-0.329 0-0.657-0.121-0.917-0.381l-9.584-9.584-9.584 9.584c-0.502 0.502-1.332 0.502-1.834 0s-0.502-1.332 0-1.834l10.501-10.501c0.502-0.502 1.332-0.502 1.834 0l10.501 10.501c0.502 0.502 0.502 1.332 0 1.834-0.242 0.259-0.588 0.381-0.917 0.381z"></path>
<path d="M16.002 32c-0.709 0-1.297-0.588-1.297-1.297v-29.115c0-0.709 0.588-1.297 1.297-1.297s1.297 0.588 1.297 1.297v29.115c0 0.709-0.588 1.297-1.297 1.297z"></path>
</svg>
