<!-- Generated by IcoMoon.io -->
<svg version="1.1" xmlns="http://www.w3.org/2000/svg" width="32" height="32" viewBox="0 0 32 32">
<title>arrow-left</title>
<path d="M11.794 27.796c-0.329 0-0.657-0.121-0.917-0.381l-10.501-10.501c-0.502-0.502-0.502-1.332 0-1.834l10.501-10.501c0.502-0.502 1.332-0.502 1.834 0s0.502 1.332 0 1.834l-9.584 9.584 9.584 9.584c0.502 0.502 0.502 1.332 0 1.834-0.242 0.259-0.588 0.381-0.917 0.381z"></path>
<path d="M30.703 17.295h-29.115c-0.709 0-1.297-0.588-1.297-1.297s0.588-1.297 1.297-1.297h29.115c0.709 0 1.297 0.588 1.297 1.297s-0.588 1.297-1.297 1.297z"></path>
</svg>
