<!-- Generated by IcoMoon.io -->
<svg version="1.1" xmlns="http://www.w3.org/2000/svg" width="32" height="32" viewBox="0 0 32 32">
<title>arrow-right-2</title>
<path d="M16 32c-8.826 0-16-7.174-16-16s7.174-16 16-16c8.826 0 16 7.174 16 16s-7.174 16-16 16zM16 2.233c-7.591 0-13.767 6.177-13.767 13.767s6.177 13.767 13.767 13.767c7.591 0 13.767-6.177 13.767-13.767s-6.177-13.767-13.767-13.767z"></path>
<path d="M19.721 17.116h-8.93c-0.61 0-1.116-0.506-1.116-1.116s0.506-1.116 1.116-1.116h8.93c0.61 0 1.116 0.506 1.116 1.116s-0.506 1.116-1.116 1.116z"></path>
<path d="M16.743 21.581c-0.283 0-0.566-0.104-0.789-0.327-0.432-0.432-0.432-1.146 0-1.578l3.676-3.676-3.676-3.676c-0.432-0.432-0.432-1.146 0-1.578s1.146-0.432 1.578 0l4.465 4.465c0.432 0.432 0.432 1.146 0 1.578l-4.465 4.465c-0.223 0.223-0.506 0.327-0.789 0.327z"></path>
</svg>
