<!-- Generated by IcoMoon.io -->
<svg version="1.1" xmlns="http://www.w3.org/2000/svg" width="32" height="32" viewBox="0 0 32 32">
<title>arrow-right-1</title>
<path d="M20.205 27.797c-0.329 0-0.657-0.121-0.917-0.381-0.502-0.502-0.502-1.332 0-1.834l9.584-9.584-9.584-9.584c-0.502-0.502-0.502-1.332 0-1.834s1.332-0.502 1.834 0l10.501 10.501c0.502 0.502 0.502 1.332 0 1.834l-10.501 10.501c-0.259 0.259-0.588 0.381-0.917 0.381z"></path>
<path d="M30.414 17.295h-29.117c-0.709 0-1.298-0.588-1.298-1.298s0.588-1.298 1.298-1.298h29.117c0.709 0 1.298 0.588 1.298 1.298s-0.588 1.298-1.298 1.298z"></path>
</svg>
