<!-- Generated by IcoMoon.io -->
<svg version="1.1" xmlns="http://www.w3.org/2000/svg" width="32" height="32" viewBox="0 0 32 32">
<title>award</title>
<path d="M16 32c-0.893 0-1.771-0.208-2.486-0.61l-7.040-4.063c-2.917-1.965-3.111-2.322-3.111-5.403v-7.382c0-3.081 0.194-3.438 3.051-5.358l7.114-4.108c1.414-0.819 3.542-0.819 4.956 0l7.040 4.063c2.917 1.965 3.111 2.322 3.111 5.403v7.382c0 3.081-0.194 3.438-3.051 5.358l-7.114 4.108c-0.7 0.417-1.593 0.61-2.471 0.61zM16 6.698c-0.506 0-1.012 0.104-1.369 0.313l-7.040 4.063c-1.994 1.354-1.994 1.354-1.994 3.468v7.382c0 2.113 0 2.113 2.069 3.513l6.98 4.019c0.714 0.417 2.009 0.417 2.724 0l7.040-4.063c1.994-1.354 1.994-1.354 1.994-3.468v-7.382c0-2.114 0-2.114-2.069-3.513l-6.98-4.019c-0.342-0.208-0.848-0.313-1.354-0.313z"></path>
<path d="M24.186 10.612c-0.61 0-1.116-0.506-1.116-1.116v-3.914c0-2.352-0.997-3.349-3.349-3.349h-7.442c-2.352 0-3.349 0.997-3.349 3.349v3.81c0 0.61-0.506 1.116-1.116 1.116s-1.116-0.491-1.116-1.116v-3.81c0-3.602 1.98-5.581 5.581-5.581h7.442c3.602 0 5.581 1.98 5.581 5.581v3.914c0 0.61-0.506 1.116-1.116 1.116z"></path>
<path d="M18.427 24.38c-0.313 0-0.64-0.060-0.967-0.194l-1.459-0.566-1.459 0.58c-0.789 0.313-1.592 0.238-2.188-0.194s-0.908-1.176-0.863-2.024l0.089-1.563-0.997-1.206c-0.536-0.67-0.714-1.444-0.476-2.158 0.223-0.7 0.833-1.235 1.652-1.444l1.518-0.387 0.848-1.325c0.908-1.429 2.858-1.429 3.766 0l0.848 1.325 1.518 0.387c0.819 0.208 1.429 0.744 1.652 1.444s0.045 1.488-0.491 2.143l-0.997 1.206 0.089 1.563c0.045 0.848-0.268 1.578-0.863 2.024-0.357 0.253-0.774 0.387-1.22 0.387zM12.31 17.786l0.997 1.206c0.342 0.402 0.536 1.042 0.506 1.563l-0.089 1.563 1.459-0.58c0.491-0.194 1.146-0.194 1.637 0l1.459 0.58-0.089-1.563c-0.030-0.521 0.164-1.146 0.506-1.563l0.997-1.206-1.518-0.387c-0.506-0.134-1.042-0.521-1.325-0.953l-0.833-1.31-0.848 1.31c-0.283 0.447-0.819 0.833-1.325 0.967l-1.533 0.372z"></path>
</svg>
