<!-- Generated by IcoMoon.io -->
<svg version="1.1" xmlns="http://www.w3.org/2000/svg" width="1024" height="1024" viewBox="0 0 1024 1024">
<path d="M945.231 256.001h-196.923c0-130.51-105.798-236.308-236.308-236.308s-236.308 105.798-236.308 236.308v0h-196.923c-43.503 0-78.769 35.266-78.769 78.769v0 590.769c0 43.503 35.266 78.769 78.769 78.769v0h866.462c43.503 0 78.769-35.266 78.769-78.769v0-590.769c0-43.503-35.266-78.769-78.769-78.769v0zM512 98.463c87.006 0 157.538 70.533 157.538 157.538v0h-315.077c0-87.006 70.533-157.538 157.538-157.538v0zM945.231 925.54h-866.462v-590.769h196.923v78.769c0 21.751 17.633 39.385 39.385 39.385s39.385-17.633 39.385-39.385v0-78.769h315.077v78.769c0 21.751 17.633 39.385 39.385 39.385s39.385-17.633 39.385-39.385v0-78.769h196.923z"></path>
</svg>
