<!-- Generated by IcoMoon.io -->
<svg version="1.1" xmlns="http://www.w3.org/2000/svg" width="32" height="32" viewBox="0 0 32 32">
<title>bank</title>
<path d="M28.255 15.593h-24.511c-1.307 0-2.383-1.076-2.383-2.383v-4.521c0-0.926 0.64-1.866 1.498-2.206l12.255-4.902c0.517-0.204 1.253-0.204 1.77 0l12.255 4.902c0.858 0.34 1.498 1.294 1.498 2.206v4.521c0 1.307-1.076 2.383-2.383 2.383zM16 3.461c-0.054 0-0.109-0-0.136 0.014l-12.242 4.902c-0.082 0.041-0.218 0.218-0.218 0.313v4.521c0 0.191 0.15 0.34 0.34 0.34h24.511c0.191 0 0.34-0.15 0.34-0.34v-4.521c0-0.095-0.123-0.272-0.218-0.313l-12.255-4.902c-0.027-0.014-0.068-0.014-0.123-0.014z"></path>
<path d="M29.617 30.572h-27.234c-0.558 0-1.021-0.463-1.021-1.021v-4.085c0-1.307 1.076-2.383 2.383-2.383h24.511c1.307 0 2.383 1.076 2.383 2.383v4.085c0 0.558-0.463 1.021-1.021 1.021zM3.404 28.529h25.191v-3.064c0-0.191-0.15-0.34-0.34-0.34h-24.511c-0.191 0-0.34 0.15-0.34 0.34v3.064z"></path>
<path d="M5.106 25.125c-0.558 0-1.021-0.463-1.021-1.021v-9.532c0-0.558 0.463-1.021 1.021-1.021s1.021 0.463 1.021 1.021v9.532c0 0.558-0.463 1.021-1.021 1.021z"></path>
<path d="M10.553 25.125c-0.558 0-1.021-0.463-1.021-1.021v-9.532c0-0.558 0.463-1.021 1.021-1.021s1.021 0.463 1.021 1.021v9.532c0 0.558-0.463 1.021-1.021 1.021z"></path>
<path d="M16 25.125c-0.558 0-1.021-0.463-1.021-1.021v-9.532c0-0.558 0.463-1.021 1.021-1.021s1.021 0.463 1.021 1.021v9.532c0 0.558-0.463 1.021-1.021 1.021z"></path>
<path d="M21.447 25.125c-0.558 0-1.021-0.463-1.021-1.021v-9.532c0-0.558 0.463-1.021 1.021-1.021s1.021 0.463 1.021 1.021v9.532c0 0.558-0.463 1.021-1.021 1.021z"></path>
<path d="M26.894 25.125c-0.558 0-1.021-0.463-1.021-1.021v-9.532c0-0.558 0.463-1.021 1.021-1.021s1.021 0.463 1.021 1.021v9.532c0 0.558-0.463 1.021-1.021 1.021z"></path>
<path d="M30.979 30.572h-29.957c-0.558 0-1.021-0.463-1.021-1.021s0.463-1.021 1.021-1.021h29.957c0.558 0 1.021 0.463 1.021 1.021s-0.463 1.021-1.021 1.021z"></path>
<path d="M16 12.189c-1.689 0-3.064-1.375-3.064-3.064s1.375-3.064 3.064-3.064c1.689 0 3.064 1.375 3.064 3.064s-1.375 3.064-3.064 3.064zM16 8.104c-0.558 0-1.021 0.463-1.021 1.021s0.463 1.021 1.021 1.021c0.558 0 1.021-0.463 1.021-1.021s-0.463-1.021-1.021-1.021z"></path>
</svg>
