<!-- Generated by IcoMoon.io -->
<svg version="1.1" xmlns="http://www.w3.org/2000/svg" width="32" height="32" viewBox="0 0 32 32">
<title>calendar-1</title>
<path d="M10.046 6.698c-0.61 0-1.116-0.506-1.116-1.116v-4.465c0-0.61 0.506-1.116 1.116-1.116s1.116 0.506 1.116 1.116v4.465c0 0.61-0.506 1.116-1.116 1.116z"></path>
<path d="M21.953 6.698c-0.61 0-1.116-0.506-1.116-1.116v-4.465c0-0.61 0.506-1.116 1.116-1.116s1.116 0.506 1.116 1.116v4.465c0 0.61-0.506 1.116-1.116 1.116z"></path>
<path d="M10.791 19.721c-0.194 0-0.387-0.045-0.566-0.119-0.194-0.074-0.342-0.179-0.491-0.313-0.268-0.283-0.432-0.655-0.432-1.057 0-0.194 0.045-0.387 0.119-0.566s0.179-0.342 0.313-0.491c0.149-0.134 0.298-0.238 0.491-0.313 0.536-0.223 1.206-0.104 1.622 0.313 0.268 0.283 0.432 0.67 0.432 1.057 0 0.089-0.015 0.194-0.030 0.298-0.015 0.089-0.045 0.179-0.089 0.268-0.030 0.089-0.074 0.179-0.134 0.268-0.045 0.074-0.119 0.149-0.179 0.223-0.283 0.268-0.67 0.432-1.057 0.432z"></path>
<path d="M16 19.721c-0.194 0-0.387-0.045-0.566-0.119-0.194-0.074-0.342-0.179-0.491-0.313-0.268-0.283-0.432-0.655-0.432-1.057 0-0.194 0.045-0.387 0.119-0.566s0.179-0.342 0.313-0.491c0.149-0.134 0.298-0.238 0.491-0.313 0.536-0.238 1.206-0.104 1.622 0.313 0.268 0.283 0.432 0.67 0.432 1.057 0 0.089-0.015 0.194-0.030 0.298-0.015 0.089-0.045 0.179-0.089 0.268-0.030 0.089-0.074 0.179-0.134 0.268-0.045 0.074-0.119 0.149-0.179 0.223-0.283 0.268-0.67 0.432-1.057 0.432z"></path>
<path d="M21.209 19.721c-0.194 0-0.387-0.045-0.566-0.119-0.194-0.074-0.342-0.179-0.491-0.313-0.060-0.074-0.119-0.149-0.179-0.223-0.060-0.089-0.104-0.179-0.134-0.268-0.045-0.089-0.074-0.179-0.089-0.268-0.015-0.104-0.030-0.208-0.030-0.298 0-0.387 0.164-0.774 0.432-1.057 0.149-0.134 0.298-0.238 0.491-0.313 0.551-0.238 1.206-0.104 1.622 0.313 0.268 0.283 0.432 0.67 0.432 1.057 0 0.089-0.015 0.194-0.030 0.298-0.015 0.089-0.045 0.179-0.089 0.268-0.030 0.089-0.074 0.179-0.134 0.268-0.045 0.074-0.119 0.149-0.179 0.223-0.283 0.268-0.67 0.432-1.057 0.432z"></path>
<path d="M10.791 24.93c-0.194 0-0.387-0.044-0.566-0.119s-0.342-0.179-0.491-0.313c-0.268-0.283-0.432-0.67-0.432-1.057 0-0.194 0.045-0.387 0.119-0.566 0.074-0.194 0.179-0.357 0.313-0.491 0.551-0.551 1.563-0.551 2.114 0 0.268 0.283 0.432 0.67 0.432 1.057s-0.164 0.774-0.432 1.057c-0.283 0.268-0.67 0.432-1.057 0.432z"></path>
<path d="M16 24.93c-0.387 0-0.774-0.164-1.057-0.432-0.268-0.283-0.432-0.67-0.432-1.057 0-0.194 0.045-0.387 0.119-0.566 0.074-0.194 0.179-0.357 0.313-0.491 0.551-0.551 1.563-0.551 2.114 0 0.134 0.134 0.238 0.298 0.313 0.491 0.074 0.179 0.119 0.372 0.119 0.566 0 0.387-0.164 0.774-0.432 1.057-0.283 0.268-0.67 0.432-1.057 0.432z"></path>
<path d="M21.209 24.93c-0.387 0-0.774-0.164-1.057-0.432-0.134-0.134-0.238-0.298-0.313-0.491-0.074-0.179-0.119-0.372-0.119-0.566s0.045-0.387 0.119-0.566c0.074-0.194 0.179-0.357 0.313-0.491 0.342-0.342 0.863-0.506 1.34-0.402 0.104 0.015 0.194 0.045 0.283 0.089 0.089 0.030 0.179 0.074 0.268 0.134 0.074 0.045 0.149 0.119 0.223 0.179 0.268 0.283 0.432 0.67 0.432 1.057s-0.164 0.774-0.432 1.057c-0.283 0.268-0.67 0.432-1.057 0.432z"></path>
<path d="M28.651 12.785h-25.302c-0.61 0-1.116-0.506-1.116-1.116s0.506-1.116 1.116-1.116h25.302c0.61 0 1.116 0.506 1.116 1.116s-0.506 1.116-1.116 1.116z"></path>
<path d="M21.953 32h-11.907c-5.433 0-8.558-3.126-8.558-8.558v-12.651c0-5.433 3.126-8.558 8.558-8.558h11.907c5.433 0 8.558 3.126 8.558 8.558v12.651c0 5.433-3.126 8.558-8.558 8.558zM10.046 4.465c-4.257 0-6.326 2.069-6.326 6.326v12.651c0 4.257 2.069 6.326 6.326 6.326h11.907c4.257 0 6.326-2.069 6.326-6.326v-12.651c0-4.257-2.069-6.326-6.326-6.326h-11.907z"></path>
</svg>
