<!-- Generated by IcoMoon.io -->
<svg version="1.1" xmlns="http://www.w3.org/2000/svg" width="1024" height="1024" viewBox="0 0 1024 1024">
<title></title>
<g id="icomoon-ignore">
</g>
<path fill="#000" d="M307.199 204.799c-18.659 0-34.133-15.474-34.133-34.133v-136.533c0-18.659 15.474-34.133 34.133-34.133s34.133 15.474 34.133 34.133v136.533c0 18.659-15.474 34.133-34.133 34.133z"></path>
<path fill="#000" d="M671.289 204.799c-18.659 0-34.133-15.474-34.133-34.133v-136.533c0-18.659 15.474-34.133 34.133-34.133s34.133 15.474 34.133 34.133v136.533c0 18.659-15.474 34.133-34.133 34.133z"></path>
<path fill="#000" d="M329.955 603.026c-5.917 0-11.833-0.91-17.294-3.641-5.461-2.275-10.468-5.461-15.019-9.557-8.192-8.647-13.198-20.48-13.198-32.313 0-5.917 1.365-11.833 3.641-17.294s5.461-10.467 9.557-15.019c4.551-4.096 9.557-7.282 15.019-9.557 16.384-6.827 36.864-3.186 49.607 9.557 4.096 4.551 7.281 9.557 9.557 15.019s3.641 11.378 3.641 17.294c0 11.833-5.006 23.666-13.198 32.313-8.647 8.192-20.48 13.198-32.314 13.198z"></path>
<path fill="#000" d="M489.244 603.017c-11.833 0-23.666-5.006-32.313-13.198-4.096-4.551-7.282-9.557-9.557-15.019s-3.641-11.378-3.641-17.294c0-11.833 5.006-23.666 13.198-32.313 12.743-12.743 32.768-16.839 49.607-9.557 5.461 2.275 10.467 5.461 15.019 9.557 8.192 8.647 13.198 20.48 13.198 32.313 0 5.917-0.91 11.833-3.641 17.294-2.275 5.461-5.461 10.467-9.557 15.019-4.551 4.096-9.557 7.282-15.019 9.557-5.461 2.731-11.378 3.641-17.294 3.641z"></path>
<path fill="#000" d="M329.955 762.306c-5.917 0-11.833-1.365-17.294-3.641s-10.468-5.461-15.019-9.557c-8.192-8.647-13.198-20.025-13.198-32.313 0-5.917 1.365-11.833 3.641-17.294 2.275-5.917 5.461-10.467 9.557-15.019 4.551-4.096 9.557-7.282 15.019-9.557 16.384-7.282 36.864-3.186 49.607 9.557 4.096 4.551 7.281 9.102 9.557 15.019 2.275 5.461 3.641 11.378 3.641 17.294 0 12.288-5.006 23.666-13.198 32.313-8.647 8.192-20.48 13.198-32.314 13.198z"></path>
<path fill="#000" d="M876.089 390.933h-773.69c-18.659 0-34.133-15.474-34.133-34.133s15.474-34.133 34.133-34.133h773.69c18.659 0 34.133 15.474 34.133 34.133s-15.474 34.133-34.133 34.133z"></path>
<path fill="#000" d="M762.311 1023.999c-119.239 0-216.178-96.939-216.178-216.178s96.939-216.178 216.178-216.178c119.239 0 216.178 96.939 216.178 216.178s-96.939 216.178-216.178 216.178zM762.311 659.911c-81.465 0-147.911 66.446-147.911 147.911s66.446 147.911 147.911 147.911c81.465 0 147.911-66.446 147.911-147.911s-66.446-147.911-147.911-147.911z"></path>
<path fill="#000" d="M830.122 844.221h-136.078c-18.659 0-34.133-15.474-34.133-34.133s15.474-34.133 34.133-34.133h136.078c18.659 0 34.133 15.474 34.133 34.133s-15.019 34.133-34.133 34.133z"></path>
<path fill="#000" d="M762.311 913.853c-18.659 0-34.133-15.474-34.133-34.133v-136.078c0-18.659 15.474-34.133 34.133-34.133s34.133 15.474 34.133 34.133v136.078c0 18.659-15.474 34.133-34.133 34.133z"></path>
<path fill="#000" d="M642.617 978.489h-335.417c-166.115 0-261.689-95.573-261.689-261.689v-386.845c0-166.115 95.573-261.689 261.689-261.689h364.089c166.115 0 261.689 95.573 261.689 261.689v357.717c0 14.109-8.647 26.851-22.301 31.858-13.198 5.006-28.217 1.365-37.774-9.557-28.217-31.858-68.722-50.062-111.047-50.062-81.465 0-147.911 66.446-147.911 147.911 0 26.851 7.282 53.248 21.39 76.003 7.737 13.653 17.749 25.031 28.672 34.589 10.923 9.102 15.019 24.121 10.013 37.774-4.096 13.198-16.839 22.301-31.403 22.301zM307.199 136.533c-130.162 0-193.422 63.261-193.422 193.422v386.845c0 130.162 63.261 193.422 193.422 193.422h264.875c-16.839-30.947-25.941-65.991-25.941-102.4 0-119.239 96.939-216.178 216.178-216.178 35.954 0 71.453 9.102 102.4 25.941v-287.63c0-130.162-63.261-193.422-193.422-193.422h-364.089z"></path>
</svg>
