<!-- Generated by IcoMoon.io -->
<svg version="1.1" xmlns="http://www.w3.org/2000/svg" width="32" height="32" viewBox="0 0 32 32">
<title>call</title>
<path d="M24.141 32c-1.682 0-3.453-0.402-5.284-1.176-1.786-0.759-3.587-1.801-5.343-3.066-1.741-1.28-3.423-2.709-5.016-4.272-1.578-1.593-3.007-3.274-4.272-5.001-1.28-1.786-2.307-3.572-3.036-5.299-0.774-1.846-1.161-3.632-1.161-5.314 0-1.161 0.208-2.262 0.61-3.289 0.417-1.057 1.087-2.039 1.994-2.887 1.146-1.131 2.456-1.697 3.855-1.697 0.58 0 1.176 0.134 1.682 0.372 0.58 0.268 1.072 0.67 1.429 1.206l3.453 4.867c0.313 0.432 0.551 0.848 0.714 1.265 0.194 0.446 0.298 0.893 0.298 1.325 0 0.566-0.164 1.116-0.476 1.637-0.223 0.402-0.566 0.833-0.997 1.265l-1.012 1.057c0.015 0.045 0.030 0.074 0.045 0.104 0.179 0.313 0.536 0.848 1.22 1.652 0.729 0.833 1.414 1.593 2.099 2.292 0.878 0.863 1.607 1.548 2.292 2.114 0.848 0.714 1.399 1.072 1.727 1.235l-0.030 0.074 1.087-1.072c0.461-0.461 0.908-0.804 1.34-1.027 0.819-0.506 1.86-0.595 2.902-0.164 0.387 0.164 0.804 0.387 1.25 0.7l4.941 3.513c0.551 0.372 0.953 0.848 1.191 1.414 0.223 0.566 0.327 1.087 0.327 1.607 0 0.714-0.164 1.429-0.476 2.099s-0.7 1.25-1.191 1.786c-0.848 0.938-1.771 1.607-2.843 2.039-1.027 0.417-2.143 0.64-3.319 0.64zM6.489 2.232c-0.819 0-1.578 0.357-2.307 1.072-0.685 0.64-1.161 1.34-1.459 2.099-0.313 0.774-0.461 1.593-0.461 2.471 0 1.384 0.327 2.887 0.982 4.435 0.67 1.578 1.607 3.215 2.798 4.852s2.545 3.23 4.034 4.733c1.488 1.474 3.096 2.843 4.748 4.048 1.607 1.176 3.26 2.128 4.897 2.813 2.545 1.087 4.927 1.34 6.891 0.521 0.759-0.313 1.429-0.789 2.039-1.474 0.342-0.372 0.61-0.774 0.833-1.25 0.179-0.372 0.268-0.759 0.268-1.146 0-0.238-0.045-0.476-0.164-0.744-0.045-0.089-0.134-0.253-0.417-0.447l-4.941-3.513c-0.298-0.208-0.566-0.357-0.819-0.461-0.327-0.134-0.461-0.268-0.967 0.045-0.298 0.149-0.566 0.372-0.863 0.67l-1.131 1.116c-0.58 0.566-1.474 0.7-2.158 0.447l-0.402-0.179c-0.61-0.327-1.325-0.833-2.114-1.503-0.714-0.61-1.488-1.325-2.426-2.247-0.729-0.744-1.459-1.533-2.218-2.411-0.7-0.819-1.206-1.518-1.518-2.099l-0.179-0.447c-0.089-0.342-0.119-0.536-0.119-0.744 0-0.536 0.194-1.012 0.566-1.384l1.116-1.161c0.298-0.298 0.521-0.58 0.67-0.833 0.119-0.194 0.164-0.357 0.164-0.506 0-0.119-0.045-0.298-0.119-0.476-0.104-0.238-0.268-0.506-0.476-0.789l-3.453-4.882c-0.149-0.208-0.327-0.357-0.551-0.461-0.238-0.104-0.491-0.164-0.744-0.164zM18.932 20.48l-0.238 1.012 0.402-1.042c-0.074-0.015-0.134 0-0.164 0.030z"></path>
</svg>
