<!-- Generated by IcoMoon.io -->
<svg version="1.1" xmlns="http://www.w3.org/2000/svg" width="32" height="32" viewBox="0 0 32 32">
<title>camera</title>
<path d="M23.799 32h-15.598c-4.167 0-6.817-2.486-7.055-6.638l-0.774-12.279c-0.119-1.86 0.521-3.646 1.801-5.001 1.265-1.354 3.051-2.128 4.897-2.128 0.476 0 0.938-0.283 1.161-0.729l1.072-2.128c0.878-1.741 3.081-3.096 5.001-3.096h3.408c1.92 0 4.108 1.354 4.986 3.081l1.072 2.173c0.223 0.417 0.67 0.7 1.161 0.7 1.846 0 3.632 0.774 4.897 2.128 1.28 1.369 1.92 3.14 1.801 5.001l-0.774 12.294c-0.268 4.212-2.843 6.623-7.055 6.623zM14.303 2.232c-1.101 0-2.5 0.863-3.007 1.86l-1.072 2.143c-0.625 1.206-1.831 1.95-3.155 1.95-1.25 0-2.411 0.506-3.274 1.414-0.848 0.908-1.28 2.099-1.191 3.334l0.774 12.294c0.179 3.007 1.801 4.54 4.822 4.54h15.598c3.007 0 4.629-1.533 4.822-4.54l0.774-12.294c0.074-1.235-0.342-2.426-1.191-3.334-0.863-0.908-2.024-1.414-3.274-1.414-1.325 0-2.53-0.744-3.155-1.92l-1.087-2.173c-0.491-0.982-1.89-1.846-2.992-1.846h-3.393v-0.015z"></path>
<path d="M18.233 11.163h-4.465c-0.61 0-1.116-0.506-1.116-1.116s0.506-1.116 1.116-1.116h4.465c0.61 0 1.116 0.506 1.116 1.116s-0.506 1.116-1.116 1.116z"></path>
<path d="M16 26.046c-3.289 0-5.954-2.664-5.954-5.954s2.664-5.954 5.954-5.954c3.289 0 5.954 2.664 5.954 5.954s-2.664 5.953-5.953 5.953zM16 16.372c-2.054 0-3.721 1.667-3.721 3.721s1.667 3.721 3.721 3.721c2.054 0 3.721-1.667 3.721-3.721s-1.667-3.721-3.721-3.721z"></path>
</svg>
