<!-- Generated by IcoMoon.io -->
<svg version="1.1" xmlns="http://www.w3.org/2000/svg" width="32" height="32" viewBox="0 0 32 32">
<title>card-add</title>
<path d="M18.233 11.907h-17.116c-0.61 0-1.116-0.506-1.116-1.116s0.506-1.116 1.116-1.116h17.116c0.61 0 1.116 0.506 1.116 1.116s-0.506 1.116-1.116 1.116z"></path>
<path d="M10.046 23.814h-2.977c-0.61 0-1.116-0.506-1.116-1.116s0.506-1.116 1.116-1.116h2.977c0.61 0 1.116 0.506 1.116 1.116s-0.506 1.116-1.116 1.116z"></path>
<path d="M19.721 23.814h-5.954c-0.61 0-1.116-0.506-1.116-1.116s0.506-1.116 1.116-1.116h5.954c0.61 0 1.116 0.506 1.116 1.116s-0.506 1.116-1.116 1.116z"></path>
<path d="M24.275 29.767h-16.551c-5.924 0-7.725-1.786-7.725-7.65v-12.234c0-5.864 1.801-7.65 7.725-7.65h10.508c0.61 0 1.116 0.506 1.116 1.116s-0.506 1.116-1.116 1.116h-10.508c-4.673 0-5.492 0.804-5.492 5.418v12.22c0 4.614 0.819 5.418 5.492 5.418h16.536c4.673 0 5.492-0.804 5.492-5.418v-6.073c0-0.61 0.506-1.116 1.116-1.116s1.116 0.506 1.116 1.116v6.073c0.015 5.879-1.786 7.665-7.71 7.665z"></path>
<path d="M30.884 8.558h-8.186c-0.61 0-1.116-0.506-1.116-1.116s0.506-1.116 1.116-1.116h8.186c0.61 0 1.116 0.506 1.116 1.116s-0.506 1.116-1.116 1.116z"></path>
<path d="M26.791 12.651c-0.61 0-1.116-0.506-1.116-1.116v-8.186c0-0.61 0.506-1.116 1.116-1.116s1.116 0.506 1.116 1.116v8.186c0 0.61-0.506 1.116-1.116 1.116z"></path>
</svg>
