<!-- Generated by IcoMoon.io -->
<svg version="1.1" xmlns="http://www.w3.org/2000/svg" width="32" height="32" viewBox="0 0 32 32">
<title>card-edit</title>
<path d="M15.258 11.906h-14.142c-0.61 0-1.116-0.506-1.116-1.116s0.506-1.116 1.116-1.116h14.142c0.61 0 1.116 0.506 1.116 1.116s-0.506 1.116-1.116 1.116z"></path>
<path d="M10.048 23.815h-2.977c-0.61 0-1.116-0.506-1.116-1.116s0.506-1.116 1.116-1.116h2.977c0.61 0 1.116 0.506 1.116 1.116s-0.506 1.116-1.116 1.116z"></path>
<path d="M19.724 23.815h-5.955c-0.61 0-1.116-0.506-1.116-1.116s0.506-1.116 1.116-1.116h5.955c0.61 0 1.116 0.506 1.116 1.116s-0.506 1.116-1.116 1.116z"></path>
<path d="M24.28 29.77h-16.554c-5.925 0-7.726-1.786-7.726-7.652v-12.237c0-5.865 1.801-7.652 7.726-7.652h11.998c0.61 0 1.116 0.506 1.116 1.116s-0.506 1.116-1.116 1.116h-11.998c-4.674 0-5.493 0.804-5.493 5.419v12.222c0 4.615 0.819 5.419 5.493 5.419h16.539c4.674 0 5.493-0.804 5.493-5.419v-6.074c0-0.61 0.506-1.116 1.116-1.116s1.116 0.506 1.116 1.116v6.074c0.015 5.88-1.786 7.666-7.711 7.666z"></path>
<path d="M21.242 15.167c-0.581 0-1.131-0.208-1.518-0.61-0.476-0.476-0.685-1.161-0.581-1.876l0.298-2.114c0.074-0.536 0.402-1.176 0.774-1.548l5.523-5.523c2.188-2.188 4.094-0.938 5.046 0 0.938 0.938 2.188 2.843 0 5.046l-5.523 5.523c-0.387 0.387-1.027 0.7-1.548 0.774l-2.114 0.298c-0.119 0.015-0.238 0.030-0.357 0.030zM28.253 4.508c-0.298 0-0.566 0.208-0.938 0.566l-5.508 5.523c-0.045 0.060-0.134 0.223-0.149 0.298l-0.298 2.010 2.025-0.283c0.074-0.015 0.238-0.104 0.298-0.149l5.523-5.523c0.7-0.7 0.804-1.087 0-1.876-0.387-0.387-0.67-0.566-0.953-0.566z"></path>
<path d="M29.207 9.659c-0.104 0-0.208-0.015-0.298-0.045-2.039-0.581-3.662-2.188-4.228-4.228-0.164-0.595 0.179-1.206 0.774-1.384 0.595-0.164 1.206 0.179 1.384 0.774 0.372 1.295 1.399 2.322 2.694 2.694 0.595 0.164 0.938 0.789 0.774 1.37-0.164 0.491-0.61 0.819-1.102 0.819z"></path>
</svg>
