<!-- Generated by IcoMoon.io -->
<svg version="1.1" xmlns="http://www.w3.org/2000/svg" width="32" height="32" viewBox="0 0 32 32">
<title>chart-1</title>
<path d="M30.884 32h-29.767c-0.61 0-1.116-0.506-1.116-1.116s0.506-1.116 1.116-1.116h29.767c0.61 0 1.116 0.506 1.116 1.116s-0.506 1.116-1.116 1.116z"></path>
<path d="M19.349 32h-6.698c-0.61 0-1.116-0.506-1.116-1.116v-26.791c0-2.56 1.414-4.093 3.795-4.093h1.34c2.381 0 3.795 1.533 3.795 4.093v26.791c0 0.61-0.506 1.116-1.116 1.116zM13.767 29.767h4.465v-25.674c0-1.712-0.804-1.86-1.563-1.86h-1.34c-0.759 0-1.563 0.149-1.563 1.86v25.674z"></path>
<path d="M8.558 32h-5.954c-0.61 0-1.116-0.506-1.116-1.116v-17.86c0-2.56 1.31-4.093 3.498-4.093h1.191c2.188 0 3.498 1.533 3.498 4.093v17.86c0 0.61-0.506 1.116-1.116 1.116zM3.721 29.767h3.721v-16.744c0-1.86-0.819-1.86-1.265-1.86h-1.191c-0.447 0-1.265 0-1.265 1.86v16.744z"></path>
<path d="M29.395 32h-5.954c-0.61 0-1.116-0.506-1.116-1.116v-10.419c0-2.56 1.31-4.093 3.498-4.093h1.191c2.188 0 3.498 1.533 3.498 4.093v10.419c0 0.61-0.506 1.116-1.116 1.116zM24.558 29.767h3.721v-9.302c0-1.86-0.819-1.86-1.265-1.86h-1.191c-0.447 0-1.265 0-1.265 1.86v9.302z"></path>
</svg>
