<!-- Generated by IcoMoon.io -->
<svg version="1.1" xmlns="http://www.w3.org/2000/svg" width="1024" height="1024" viewBox="0 0 1024 1024">
<path d="M736.788 365.982c7.136 7.129 11.551 16.981 11.551 27.865s-4.415 20.736-11.551 27.865v0l-275.692 275.692c-7.129 7.136-16.981 11.551-27.865 11.551s-20.736-4.415-27.865-11.551v0l-118.154-118.154c-7.131-7.131-11.542-16.983-11.542-27.865 0-21.764 17.643-39.407 39.407-39.407 10.881 0 20.734 4.411 27.865 11.542l90.289 90.338 247.828-247.877c7.129-7.136 16.981-11.551 27.865-11.551s20.736 4.415 27.865 11.551v0zM1024 512c0 282.769-229.231 512-512 512s-512-229.231-512-512c0-282.769 229.231-512 512-512v0c282.646 0.308 511.692 229.354 512 511.97v0.030zM945.231 512c0-239.266-193.964-433.231-433.231-433.231s-433.231 193.964-433.231 433.231c0 239.266 193.964 433.231 433.231 433.231v0c239.154-0.281 432.95-194.076 433.231-433.204v-0.027z"></path>
</svg>
