<!-- Generated by IcoMoon.io -->
<svg version="1.1" xmlns="http://www.w3.org/2000/svg" width="32" height="32" viewBox="0 0 32 32">
<title>clock</title>
<path d="M16 32c-8.826 0-16-7.174-16-16s7.174-16 16-16c8.826 0 16 7.174 16 16s-7.174 16-16 16zM16 2.233c-7.591 0-13.767 6.177-13.767 13.767s6.177 13.767 13.767 13.767c7.591 0 13.767-6.177 13.767-13.767s-6.177-13.767-13.767-13.767z"></path>
<path d="M21.521 21.849c-0.194 0-0.387-0.045-0.566-0.164l-4.614-2.753c-1.146-0.685-1.994-2.188-1.994-3.513v-6.102c0-0.61 0.506-1.116 1.116-1.116s1.116 0.506 1.116 1.116v6.102c0 0.536 0.447 1.325 0.908 1.593l4.614 2.753c0.536 0.313 0.7 0.997 0.387 1.533-0.223 0.357-0.595 0.551-0.967 0.551z"></path>
</svg>
