<!-- Generated by IcoMoon.io -->
<svg version="1.1" xmlns="http://www.w3.org/2000/svg" width="32" height="32" viewBox="0 0 32 32">
<title>clock-bold</title>
<path d="M16 0c-8.816 0-16 7.184-16 16s7.184 16 16 16c8.816 0 16-7.184 16-16s-7.184-16-16-16zM22.96 21.712c-0.224 0.384-0.624 0.592-1.040 0.592-0.208 0-0.416-0.048-0.608-0.176l-4.96-2.96c-1.232-0.736-2.144-2.352-2.144-3.776v-6.56c0-0.656 0.544-1.2 1.2-1.2s1.2 0.544 1.2 1.2v6.56c0 0.576 0.48 1.424 0.976 1.712l4.96 2.96c0.576 0.336 0.768 1.072 0.416 1.648z"></path>
</svg>
