<!-- Generated by IcoMoon.io -->
<svg version="1.1" xmlns="http://www.w3.org/2000/svg" width="32" height="32" viewBox="0 0 32 32">
<title>copy</title>
<path d="M14.66 32h-6.251c-5.82 0-8.409-2.59-8.409-8.409v-6.251c0-5.82 2.59-8.409 8.409-8.409h6.251c5.82 0 8.409 2.59 8.409 8.409v6.251c0 5.82-2.59 8.409-8.409 8.409zM8.409 11.163c-4.614 0-6.177 1.563-6.177 6.177v6.251c0 4.614 1.563 6.177 6.177 6.177h6.251c4.614 0 6.177-1.563 6.177-6.177v-6.251c0-4.614-1.563-6.177-6.177-6.177h-6.251z"></path>
<path d="M23.591 23.070h-1.637c-0.61 0-1.116-0.506-1.116-1.116v-4.614c0-4.614-1.563-6.177-6.177-6.177h-4.614c-0.61 0-1.116-0.506-1.116-1.116v-1.637c0-5.82 2.59-8.409 8.409-8.409h6.251c5.82 0 8.409 2.59 8.409 8.409v6.251c0 5.82-2.59 8.409-8.409 8.409zM23.070 20.837h0.521c4.614 0 6.177-1.563 6.177-6.177v-6.251c0-4.614-1.563-6.177-6.177-6.177h-6.251c-4.614 0-6.177 1.563-6.177 6.177v0.521h3.498c5.82 0 8.409 2.59 8.409 8.409v3.498z"></path>
</svg>
