<!-- Generated by IcoMoon.io -->
<svg version="1.1" xmlns="http://www.w3.org/2000/svg" width="32" height="32" viewBox="0 0 32 32">
<title>crown-1</title>
<path d="M23.027 27.478h-13.939c-1.097 0-2.209-0.786-2.58-1.809l-6.139-17.187c-0.756-2.165-0.208-3.159 0.386-3.603s1.705-0.712 3.574 0.623l5.783 4.137c0.178 0.104 0.341 0.148 0.46 0.119 0.133-0.044 0.237-0.163 0.311-0.371l2.61-6.955c0.786-2.076 1.943-2.387 2.565-2.387s1.779 0.311 2.565 2.387l2.61 6.955c0.074 0.193 0.178 0.326 0.311 0.371s0.297 0 0.46-0.133l5.427-3.87c1.987-1.424 3.144-1.142 3.781-0.682 0.623 0.474 1.201 1.527 0.386 3.826l-5.991 16.771c-0.371 1.023-1.483 1.809-2.58 1.809zM2.237 6.836c0.030 0.208 0.089 0.504 0.237 0.89l6.139 17.187c0.059 0.148 0.326 0.341 0.475 0.341h13.939c0.163 0 0.43-0.193 0.474-0.341l5.991-16.757c0.208-0.563 0.267-0.949 0.282-1.171-0.222 0.074-0.563 0.237-1.053 0.593l-5.427 3.87c-0.741 0.519-1.616 0.682-2.402 0.445s-1.424-0.86-1.75-1.705l-2.61-6.955c-0.193-0.519-0.371-0.771-0.474-0.89-0.104 0.119-0.282 0.371-0.475 0.875l-2.61 6.955c-0.311 0.845-0.949 1.468-1.75 1.705-0.786 0.237-1.676 0.074-2.402-0.445l-5.783-4.137c-0.341-0.237-0.608-0.386-0.801-0.46z"></path>
<path d="M24.213 31.956h-16.312c-0.608 0-1.112-0.504-1.112-1.112s0.504-1.112 1.112-1.112h16.312c0.608 0 1.112 0.504 1.112 1.112s-0.504 1.112-1.112 1.112z"></path>
<path d="M19.764 20.093h-7.414c-0.608 0-1.112-0.504-1.112-1.112s0.504-1.112 1.112-1.112h7.414c0.608 0 1.112 0.504 1.112 1.112s-0.504 1.112-1.112 1.112z"></path>
</svg>
