<!-- Generated by IcoMoon.io -->
<svg version="1.1" xmlns="http://www.w3.org/2000/svg" width="32" height="32" viewBox="0 0 32 32">
<title>csv-file</title>
<path d="M30.827 9.415l-9.268-9.269c-0.046-0.046-0.101-0.083-0.162-0.108s-0.126-0.038-0.191-0.038h-10.497c-2.443 0-4.431 1.988-4.431 4.431v8.77h-3.889c-0.751 0-1.362 0.611-1.362 1.362v7.832c0 0.751 0.611 1.363 1.362 1.363h3.889v3.811c0 2.443 1.988 4.431 4.431 4.431h15.833c2.443 0 4.431-1.988 4.431-4.431v-17.8c0-0.066-0.013-0.131-0.038-0.191s-0.062-0.116-0.108-0.162zM21.706 1.705l7.562 7.563h-7.062c-0.275 0-0.5-0.225-0.5-0.501v-7.062zM2.026 22.395v-7.833c0-0.197 0.166-0.363 0.363-0.363h21.35c0.096 0 0.189 0.038 0.257 0.106s0.106 0.161 0.106 0.257v7.832c0 0.096-0.038 0.189-0.106 0.257s-0.16 0.106-0.257 0.107h-21.35c-0.197 0-0.363-0.166-0.363-0.363zM26.542 31h-15.833c-1.892 0-3.432-1.54-3.432-3.432v-3.811h16.462c0.751 0 1.363-0.611 1.363-1.363v-7.832c0-0.751-0.611-1.362-1.363-1.362h-16.462v-8.77c0-1.892 1.539-3.432 3.432-3.432h9.997v7.769c0 0.827 0.672 1.501 1.499 1.501h7.769v17.3c0 1.892-1.539 3.432-3.432 3.432zM6.756 17.409v2.14c0 0.613 0.498 1.111 1.111 1.111s1.111-0.498 1.111-1.111c0-0.133 0.053-0.26 0.146-0.353s0.221-0.146 0.353-0.146 0.26 0.053 0.353 0.146c0.094 0.094 0.146 0.221 0.146 0.353 0 1.163-0.947 2.11-2.11 2.11s-2.11-0.947-2.11-2.11v-2.14c0-1.164 0.947-2.112 2.11-2.112s2.11 0.947 2.11 2.112c0 0.133-0.053 0.26-0.146 0.353s-0.221 0.146-0.353 0.146-0.26-0.053-0.353-0.146c-0.094-0.094-0.146-0.221-0.146-0.353 0-0.613-0.498-1.113-1.111-1.113s-1.111 0.499-1.111 1.113zM11.843 17.138c0 0.46 0.104 0.841 1.38 0.841 1.015 0 1.841 0.825 1.841 1.839s-0.826 1.841-1.841 1.841h-0.797c-0.872 0-1.582-0.711-1.582-1.584 0-0.133 0.053-0.26 0.146-0.353s0.221-0.146 0.353-0.146 0.26 0.053 0.353 0.146c0.094 0.094 0.146 0.221 0.146 0.353 0 0.322 0.262 0.585 0.583 0.585h0.797c0.464 0 0.842-0.377 0.842-0.841s-0.378-0.84-0.842-0.84c-0.423 0-1.042-0.031-1.533-0.296-0.386-0.209-0.847-0.647-0.847-1.544 0-1.014 0.825-1.839 1.839-1.839h0.797c0.873 0 1.584 0.71 1.584 1.582 0 0.133-0.053 0.26-0.146 0.353s-0.221 0.146-0.353 0.146-0.26-0.053-0.353-0.146c-0.094-0.094-0.146-0.221-0.146-0.353 0-0.321-0.262-0.583-0.585-0.583h-0.797c-0.463 0-0.84 0.377-0.84 0.84zM20.346 15.955l-1.78 5.363c-0.033 0.1-0.097 0.186-0.182 0.248s-0.188 0.094-0.292 0.094c-0.105 0-0.207-0.033-0.293-0.095s-0.149-0.148-0.182-0.248l-1.779-5.363c-0.042-0.126-0.032-0.263 0.028-0.381s0.163-0.208 0.289-0.25c0.262-0.087 0.545 0.055 0.631 0.317l1.305 3.934 1.306-3.934c0.021-0.062 0.053-0.12 0.096-0.169s0.095-0.090 0.154-0.12c0.059-0.029 0.123-0.047 0.188-0.052s0.131 0.004 0.193 0.024c0.062 0.021 0.12 0.053 0.169 0.096s0.090 0.095 0.12 0.154c0.029 0.059 0.047 0.123 0.052 0.188s-0.003 0.131-0.024 0.193z"></path>
</svg>
