<!-- Generated by IcoMoon.io -->
<svg version="1.1" xmlns="http://www.w3.org/2000/svg" width="32" height="32" viewBox="0 0 32 32">
<title>cup</title>
<path d="M16.223 26.94c-0.61 0-1.116-0.506-1.116-1.116v-3.126c0-0.61 0.506-1.116 1.116-1.116s1.116 0.506 1.116 1.116v3.126c0 0.61-0.506 1.116-1.116 1.116z"></path>
<path d="M24.781 32h-17.116v-2.605c0-2.262 1.831-4.093 4.093-4.093h8.93c2.262 0 4.093 1.831 4.093 4.093v2.605zM9.897 29.767h12.651v-0.372c0-1.027-0.833-1.86-1.86-1.86h-8.93c-1.027 0-1.86 0.833-1.86 1.86v0.372z"></path>
<path d="M25.153 32h-17.86c-0.61 0-1.116-0.506-1.116-1.116s0.506-1.116 1.116-1.116h17.86c0.61 0 1.116 0.506 1.116 1.116s-0.506 1.116-1.116 1.116z"></path>
<path d="M25.57 16.655c-0.313 0-0.625-0.134-0.848-0.387-0.283-0.327-0.357-0.789-0.179-1.176 0.506-1.161 0.759-2.396 0.759-3.691v-4.465c0-0.521-0.089-1.027-0.268-1.563-0.015-0.045-0.030-0.104-0.045-0.164-0.045-0.223-0.060-0.447-0.060-0.655 0-0.61 0.506-1.116 1.116-1.116h0.893c2.664 0 4.837 2.233 4.837 4.986 0 2.277-0.938 4.525-2.56 6.147-0.030 0.030-0.119 0.104-0.134 0.119-0.878 0.729-1.875 1.548-3.215 1.92-0.104 0.030-0.194 0.045-0.298 0.045zM27.431 5.715c0.074 0.402 0.104 0.819 0.104 1.22v4.465c0 0.61-0.045 1.191-0.134 1.786 0.089-0.074 0.164-0.134 0.253-0.208 1.191-1.191 1.89-2.858 1.89-4.554 0-1.34-0.908-2.471-2.114-2.709z"></path>
<path d="M6.444 16.596c-0.119 0-0.223-0.015-0.342-0.060-1.22-0.387-2.366-1.101-3.319-2.054-1.712-1.89-2.56-3.959-2.56-6.147 0-2.709 2.128-4.837 4.837-4.837h0.967c0.372 0 0.729 0.194 0.938 0.506s0.238 0.714 0.089 1.057c-0.238 0.536-0.357 1.146-0.357 1.786v4.465c0 1.28 0.253 2.53 0.774 3.721 0.179 0.402 0.089 0.863-0.194 1.191-0.223 0.238-0.521 0.372-0.833 0.372zM4.539 5.775c-1.206 0.238-2.084 1.28-2.084 2.56 0 1.622 0.655 3.185 1.95 4.614 0.060 0.074 0.134 0.134 0.208 0.194-0.104-0.61-0.149-1.22-0.149-1.831v-4.465c0-0.357 0.030-0.714 0.074-1.072z"></path>
<path d="M15.999 23.070c-6.355 0-11.535-5.18-11.535-11.535v-4.465c0-3.9 3.17-7.070 7.070-7.070h8.93c3.9 0 7.070 3.17 7.070 7.070v4.465c0 6.355-5.18 11.535-11.535 11.535zM11.534 2.233c-2.664 0-4.837 2.173-4.837 4.837v4.465c0 5.135 4.167 9.302 9.302 9.302s9.302-4.167 9.302-9.302v-4.465c0-2.664-2.173-4.837-4.837-4.837h-8.93z"></path>
</svg>
