<!-- Generated by IcoMoon.io -->
<svg version="1.1" xmlns="http://www.w3.org/2000/svg" width="32" height="32" viewBox="0 0 32 32">
<title>customer</title>
<path d="M31.462 25.869c-0.615-0.605-8.066-3.487-9.418-4.031-1.345-0.534-1.881-2.014-1.881-2.014s-0.605 0.335-0.605-0.605c0-0.941 0.605 0.605 1.211-3.025 0 0 1.68-0.471 1.346-4.368h-0.404s1.009-4.166 0-5.577c-1.013-1.41-1.409-2.35-3.632-3.025-2.22-0.673-1.413-0.539-3.025-0.47-1.614 0.068-2.958 0.941-2.958 1.41 0 0-1.009 0.068-1.41 0.471-0.404 0.404-1.075 2.284-1.075 2.754s0.336 3.632 0.672 4.302l-0.4 0.131c-0.336 3.898 1.344 4.371 1.344 4.371 0.605 3.63 1.211 2.083 1.211 3.025 0 0.94-0.605 0.605-0.605 0.605s-0.538 1.479-1.881 2.014c-1.344 0.538-8.803 3.427-9.409 4.031-0.605 0.617-0.538 3.438-0.538 3.438h14.287l1.042-4.107-0.926-0.926 1.594-1.597 1.594 1.595-0.926 0.926 1.042 4.107h14.287s0.075-2.823-0.538-3.439z"></path>
</svg>
