<!-- Generated by IcoMoon.io -->
<svg version="1.1" xmlns="http://www.w3.org/2000/svg" width="32" height="32" viewBox="0 0 32 32">
<title>danger</title>
<path d="M15.996 20.090c-0.61 0-1.115-0.506-1.115-1.115v-7.436c0-0.61 0.506-1.115 1.115-1.115s1.115 0.506 1.115 1.115v7.436c0 0.61-0.506 1.115-1.115 1.115z"></path>
<path d="M15.996 24.923c-0.089 0-0.193-0.015-0.297-0.030-0.089-0.015-0.178-0.045-0.268-0.089-0.089-0.030-0.178-0.074-0.268-0.134-0.074-0.059-0.149-0.119-0.223-0.178-0.268-0.283-0.431-0.669-0.431-1.056s0.164-0.773 0.431-1.056c0.074-0.059 0.149-0.119 0.223-0.178 0.089-0.059 0.178-0.104 0.268-0.134 0.089-0.045 0.178-0.074 0.268-0.089 0.193-0.045 0.402-0.045 0.58 0 0.104 0.015 0.193 0.045 0.283 0.089 0.089 0.030 0.178 0.074 0.268 0.134 0.074 0.059 0.149 0.119 0.223 0.178 0.268 0.283 0.431 0.669 0.431 1.056s-0.164 0.773-0.431 1.056c-0.074 0.059-0.149 0.119-0.223 0.178-0.089 0.059-0.178 0.104-0.268 0.134-0.089 0.045-0.178 0.074-0.283 0.089-0.089 0.015-0.193 0.030-0.283 0.030z"></path>
<path d="M25.009 31.11h-18.025c-2.9 0-5.116-1.056-6.246-2.96-1.115-1.904-0.967-4.358 0.446-6.901l9.012-16.211c1.487-2.677 3.54-4.149 5.8-4.149s4.313 1.472 5.8 4.149l9.012 16.225c1.413 2.543 1.576 4.982 0.446 6.901-1.13 1.889-3.346 2.945-6.246 2.945zM15.997 3.121c-1.398 0-2.766 1.071-3.852 3.004l-8.998 16.225c-1.011 1.814-1.175 3.48-0.476 4.685s2.246 1.859 4.328 1.859h18.025c2.082 0 3.614-0.654 4.328-1.859s0.535-2.855-0.476-4.685l-9.027-16.225c-1.086-1.933-2.454-3.004-3.852-3.004z"></path>
</svg>
