<!-- Generated by IcoMoon.io -->
<svg version="1.1" xmlns="http://www.w3.org/2000/svg" width="1024" height="1024" viewBox="0 0 1024 1024">
<title></title>
<g id="icomoon-ignore">
</g>
<path d="M731.395 536.968c-104.482 2.5-104.656 155.649-0.208 158.426 104.482-2.534 104.622-155.614 0.208-158.426zM704.147 616.286c0.035-35.545 54.081-35.684 54.29-0.139-0.139 35.441-54.011 35.58-54.29 0.139zM523.091 487.052c104.446-2.638 104.446-155.786 0-158.425-104.482 2.673-104.413 155.717 0 158.425zM523.091 380.73c35.51 0.139 35.51 54.15 0 54.29-35.51-0.174-35.475-54.081 0-54.29zM796.272 343.241c-4.888-4.902-11.524-7.662-18.449-7.675s-13.572 2.722-18.484 7.606l-301.644 300.223c-2.492 2.395-4.482 5.265-5.853 8.435-1.371 3.176-2.097 6.59-2.136 10.043-0.038 3.46 0.613 6.885 1.914 10.089 1.302 3.199 3.228 6.109 5.666 8.563 2.439 2.447 5.34 4.391 8.536 5.704 3.196 1.319 6.622 1.984 10.079 1.962 3.457-0.017 6.875-0.729 10.054-2.083 3.18-1.36 6.057-3.338 8.464-5.814l301.679-300.189c2.436-2.407 4.374-5.271 5.704-8.427 1.325-3.157 2.019-6.544 2.031-9.969 0.017-3.424-0.642-6.818-1.938-9.987s-3.211-6.051-5.624-8.48zM298.576 357.091c-6.905 0-13.526 2.743-18.409 7.625s-7.625 11.504-7.625 18.409v66.75c0 6.905 2.743 13.526 7.625 18.409s11.504 7.625 18.409 7.625c6.905 0 13.526-2.743 18.409-7.625s7.625-11.504 7.625-18.409v-66.75c0-6.905-2.743-13.526-7.625-18.409s-11.504-7.625-18.409-7.625zM298.576 548.145c-6.905 0-13.526 2.743-18.409 7.625s-7.625 11.504-7.625 18.41v66.716c0 6.902 2.743 13.526 7.625 18.409s11.504 7.625 18.409 7.625c6.905 0 13.526-2.743 18.409-7.625s7.625-11.507 7.625-18.409v-66.716c0-6.906-2.743-13.527-7.625-18.41s-11.504-7.625-18.409-7.625z"></path>
<path d="M976.409 425.985c14.428-7.739 26.479-19.258 34.862-33.321s12.785-30.143 12.728-46.516v-89.279c-0.028-24.084-9.609-47.174-26.636-64.204-17.032-17.030-40.121-26.609-64.205-26.637h-842.317c-24.083 0.027-47.173 9.607-64.204 26.637s-26.609 40.12-26.637 64.204v89.21c-0.055 16.373 4.344 32.452 12.727 46.516s20.435 25.582 34.863 33.321c15.573 8.338 28.59 20.746 37.666 35.899s13.868 32.487 13.868 50.151c0 17.664-4.793 34.997-13.868 50.151-9.075 15.152-22.093 27.561-37.666 35.898-14.439 7.746-26.497 19.276-34.88 33.352s-12.778 30.171-12.71 46.554v89.21c0.027 24.084 9.607 47.173 26.637 64.205s40.12 26.613 64.204 26.636h842.317c24.084-0.023 47.173-9.604 64.205-26.636 17.026-17.032 26.606-40.121 26.636-64.205v-89.21c0.058-16.373-4.344-32.45-12.728-46.514s-20.434-25.582-34.862-33.323c-68.174-34.12-67.653-137.978 0-172.099zM890.67 582.603c13.925 26.005 35.227 47.312 61.231 61.231 12.462 6.734 20.167 19.786 20.029 33.948v89.21c-0.011 10.28-4.096 20.139-11.368 27.411-7.266 7.266-17.124 11.356-27.405 11.362h-608.603c-1.423-22.563 8.956-65.745-26.034-66.612-35.025 0.833-24.611 44.223-26.034 66.75h-181.647c-10.28-0.006-20.137-4.096-27.406-11.362-7.27-7.272-11.357-17.13-11.367-27.411v-89.21c-0.068-6.943 1.761-13.775 5.29-19.757 3.53-5.988 8.626-10.887 14.738-14.192 23.865-12.785 43.814-31.802 57.722-55.035 13.908-23.227 21.253-49.794 21.253-76.868s-7.345-53.641-21.253-76.87c-13.908-23.228-33.857-42.249-57.722-55.035-6.113-3.299-11.209-8.204-14.738-14.186s-5.359-12.816-5.29-19.761v-89.348c0.035-21.417 17.356-38.739 38.773-38.773h181.647c1.423 22.598-9.025 65.883 26.034 66.75 35.025-0.833 24.611-44.223 26.034-66.75h608.603c21.417 0.035 38.739 17.356 38.773 38.773v89.21c0.139 14.162-7.567 27.215-20.029 33.948-17.327 9.278-32.652 21.878-45.108 37.080s-21.793 32.711-27.48 51.523c-5.681 18.813-7.608 38.561-5.658 58.118s7.729 38.537 17.015 55.856z"></path>
</svg>
