<!-- Generated by IcoMoon.io -->
<svg version="1.1" xmlns="http://www.w3.org/2000/svg" width="32" height="32" viewBox="0 0 32 32">
<title>diagram</title>
<path d="M30.884 32h-25.303c-3.081 0-5.581-2.5-5.581-5.581v-25.303c0-0.61 0.506-1.116 1.116-1.116s1.116 0.506 1.116 1.116v25.303c0 1.846 1.503 3.349 3.349 3.349h25.303c0.61 0 1.116 0.506 1.116 1.116s-0.506 1.116-1.116 1.116z"></path>
<path d="M5.897 24c-0.249 0-0.512-0.084-0.717-0.25-0.454-0.376-0.512-1.030-0.117-1.475l6.718-7.457c0.732-0.807 1.786-1.294 2.898-1.336 1.112-0.028 2.21 0.362 3.001 1.113l1.391 1.322c0.366 0.348 0.849 0.515 1.361 0.515 0.512-0.014 0.981-0.236 1.317-0.612l6.719-7.458c0.395-0.431 1.083-0.487 1.552-0.111 0.454 0.376 0.512 1.030 0.117 1.475l-6.719 7.458c-0.732 0.807-1.786 1.294-2.898 1.336-1.112 0.028-2.21-0.362-3.001-1.113l-1.376-1.322c-0.366-0.348-0.849-0.529-1.361-0.515s-0.981 0.236-1.317 0.612l-6.718 7.457c-0.234 0.236-0.542 0.362-0.849 0.362z"></path>
</svg>
