<!-- Generated by IcoMoon.io -->
<svg version="1.1" xmlns="http://www.w3.org/2000/svg" width="1024" height="1024" viewBox="0 0 1024 1024">
<title></title>
<g id="icomoon-ignore">
</g>
<path d="M955.909 525.264c-2.036-4.126-3.092-8.664-3.092-13.263s1.056-9.137 3.092-13.262l38.188-78.129c21.265-43.501 4.417-95.351-38.351-118.045l-76.823-40.759c-4.066-2.143-7.591-5.193-10.293-8.913s-4.518-8.013-5.298-12.545l-15.025-85.657c-8.364-47.691-52.478-79.739-100.413-72.957l-86.104 12.18c-4.55 0.658-9.194 0.261-13.567-1.161s-8.364-3.83-11.657-7.038l-62.503-60.464c-34.802-33.668-89.321-33.669-124.121 0l-62.504 60.469c-3.295 3.208-7.285 5.615-11.658 7.035s-9.016 1.819-13.567 1.162l-86.105-12.18c-47.949-6.786-92.049 25.266-100.414 72.957l-15.023 85.653c-0.781 4.532-2.593 8.824-5.297 12.545s-6.225 6.771-10.294 8.914l-76.819 40.759c-42.772 22.692-59.62 74.544-38.356 118.046l38.19 78.128c2.033 4.126 3.090 8.664 3.090 13.263s-1.057 9.137-3.090 13.262l-38.192 78.129c-21.264 43.498-4.416 95.349 38.356 118.046l76.819 40.758c4.069 2.143 7.592 5.191 10.295 8.911s4.516 8.012 5.297 12.543l15.023 85.658c7.616 43.417 44.843 73.863 87.63 73.863 4.213 0 8.49-0.302 12.787-0.905l86.105-12.185c4.552-0.654 9.194-0.257 13.568 1.162s8.362 3.828 11.657 7.039l62.502 60.465c17.403 16.836 39.728 25.249 62.059 25.249 22.326-0.007 44.663-8.421 62.060-25.249l62.505-60.465c6.743-6.523 15.936-9.502 25.224-8.201l86.104 12.185c47.954 6.78 92.049-25.268 100.413-72.958l15.025-85.652c0.785-4.537 2.596-8.829 5.298-12.55s6.228-6.768 10.293-8.911l76.823-40.758c42.77-22.692 59.616-74.548 38.351-118.052l-38.188-78.127zM928.063 669.266l-76.823 40.758c-24.489 13.001-41.286 36.114-46.081 63.425l-15.018 85.658c-1.326 7.729-5.618 14.642-11.965 19.248-6.347 4.613-14.246 6.56-22.013 5.436l-86.104-12.178c-27.461-3.896-54.628 4.945-74.561 24.225l-62.503 60.459c-5.617 5.473-13.152 8.54-20.997 8.54s-15.379-3.066-20.997-8.54l-62.502-60.465c-16.843-16.294-38.864-25.124-61.851-25.124-4.212 0-8.458 0.295-12.71 0.899l-86.105 12.178c-7.763 1.131-15.66-0.817-22.006-5.429s-10.641-11.519-11.967-19.255l-15.026-85.652c-4.792-27.317-21.588-50.429-46.081-63.425l-76.819-40.758c-6.945-3.651-12.189-9.872-14.614-17.332s-1.838-15.572 1.636-22.61l38.191-78.127c12.176-24.911 12.176-53.484 0-78.395l-38.191-78.129c-3.474-7.034-4.061-15.148-1.636-22.609s7.668-13.68 14.614-17.328l76.819-40.759c24.492-12.997 41.29-36.113 46.079-63.425l15.024-85.655c1.324-7.732 5.618-14.642 11.965-19.254s14.245-6.56 22.008-5.43l86.105 12.18c27.45 3.886 54.631-4.948 74.562-24.225l62.503-60.464c5.617-5.476 13.152-8.541 20.997-8.541s15.38 3.064 20.997 8.541l62.498 60.464c19.933 19.28 47.112 28.112 74.566 24.225l86.104-12.18c7.761-1.128 15.66 0.821 22.006 5.431s10.639 11.52 11.965 19.251l15.025 85.657c4.789 27.312 21.585 50.429 46.081 63.423l76.816 40.759c6.944 3.65 12.191 9.868 14.616 17.328s1.835 15.575-1.64 22.609l-38.188 78.127c-12.178 24.91-12.178 53.486 0 78.395l38.188 78.129c3.475 7.032 4.066 15.144 1.64 22.61-2.426 7.46-7.666 13.681-14.611 17.332z"></path>
<path d="M727.746 296.207c-11.531-11.532-30.232-11.532-41.764 0l-389.771 389.774c-11.532 11.531-11.532 30.232 0 41.764 2.738 2.746 5.993 4.92 9.577 6.41 3.583 1.484 7.424 2.243 11.302 2.237 7.556 0 15.116-2.879 20.88-8.647l389.776-389.774c11.531-11.534 11.531-30.23 0-41.764zM393.86 246.208c-59.703 0-108.277 48.574-108.277 108.276s48.574 108.277 108.277 108.277c59.703 0 108.277-48.574 108.277-108.277s-48.574-108.276-108.277-108.276zM393.86 403.7c-27.137 0-49.215-22.078-49.215-49.218 0-27.137 22.078-49.215 49.215-49.215s49.218 22.078 49.218 49.215c-0.002 27.139-22.079 49.218-49.218 49.218zM630.098 561.192c-59.705 0-108.277 48.576-108.277 108.275 0 59.705 48.574 108.281 108.277 108.281s108.275-48.576 108.275-108.281c0-59.698-48.569-108.275-108.275-108.275zM630.098 718.683c-27.141 0-49.219-22.076-49.219-49.216 0-27.135 22.078-49.211 49.219-49.211 27.135 0 49.216 22.076 49.216 49.211 0 27.141-22.082 49.216-49.216 49.216z"></path>
</svg>
