<!-- Generated by IcoMoon.io -->
<svg version="1.1" xmlns="http://www.w3.org/2000/svg" width="32" height="32" viewBox="0 0 32 32">
<title>document</title>
<path d="M20.465 32h-8.93c-8.082 0-11.535-3.453-11.535-11.535v-8.93c0-8.082 3.453-11.535 11.535-11.535h8.93c8.082 0 11.535 3.453 11.535 11.535v8.93c0 8.082-3.453 11.535-11.535 11.535zM11.535 2.233c-6.861 0-9.302 2.441-9.302 9.302v8.93c0 6.861 2.441 9.302 9.302 9.302h8.93c6.861 0 9.302-2.441 9.302-9.302v-8.93c0-6.861-2.441-9.302-9.302-9.302h-8.93z"></path>
<path d="M21.581 12.651h-11.163c-0.61 0-1.116-0.506-1.116-1.116s0.506-1.116 1.116-1.116h11.163c0.61 0 1.116 0.506 1.116 1.116s-0.506 1.116-1.116 1.116z"></path>
<path d="M21.581 21.581h-11.163c-0.61 0-1.116-0.506-1.116-1.116s0.506-1.116 1.116-1.116h11.163c0.61 0 1.116 0.506 1.116 1.116s-0.506 1.116-1.116 1.116z"></path>
</svg>
