<!-- Generated by IcoMoon.io -->
<svg version="1.1" xmlns="http://www.w3.org/2000/svg" width="32" height="32" viewBox="0 0 32 32">
<title>dollar-circle</title>
<path d="M18.084 24.067h-3.736c-2.441 0-4.421-2.054-4.421-4.584 0-0.61 0.506-1.116 1.116-1.116s1.116 0.506 1.116 1.116c0 1.295 0.982 2.352 2.188 2.352h3.736c0.967 0 1.771-0.863 1.771-1.905 0-1.295-0.461-1.548-1.22-1.816l-5.998-2.113c-1.161-0.402-2.724-1.265-2.724-3.929 0-2.292 1.801-4.138 4.004-4.138h3.736c2.441 0 4.42 2.054 4.42 4.584 0 0.61-0.506 1.116-1.116 1.116s-1.116-0.506-1.116-1.116c0-1.295-0.982-2.352-2.188-2.352h-3.736c-0.967 0-1.771 0.863-1.771 1.905 0 1.295 0.461 1.548 1.22 1.816l5.998 2.114c1.161 0.402 2.724 1.265 2.724 3.929-0.015 2.277-1.801 4.138-4.004 4.138z"></path>
<path d="M16 26.047c-0.61 0-1.116-0.506-1.116-1.116v-17.86c0-0.61 0.506-1.116 1.116-1.116s1.116 0.506 1.116 1.116v17.86c0 0.61-0.506 1.116-1.116 1.116z"></path>
<path d="M16 32c-8.826 0-16-7.174-16-16s7.174-16 16-16c8.826 0 16 7.174 16 16s-7.174 16-16 16zM16 2.233c-7.591 0-13.767 6.177-13.767 13.767s6.177 13.767 13.767 13.767c7.591 0 13.767-6.177 13.767-13.767s-6.177-13.767-13.767-13.767z"></path>
</svg>
