<!-- Generated by IcoMoon.io -->
<svg version="1.1" xmlns="http://www.w3.org/2000/svg" width="32" height="32" viewBox="0 0 32 32">
<title>edit</title>
<path d="M20.228 32h-8.827c-7.988 0-11.401-3.413-11.401-11.401v-8.827c0-7.988 3.413-11.401 11.401-11.401h2.942c0.603 0 1.103 0.5 1.103 1.103s-0.5 1.103-1.103 1.103h-2.942c-6.782 0-9.194 2.413-9.194 9.194v8.827c0 6.782 2.413 9.194 9.194 9.194h8.827c6.782 0 9.194-2.413 9.194-9.194v-2.942c0-0.603 0.5-1.103 1.103-1.103s1.103 0.5 1.103 1.103v2.942c0 7.988-3.413 11.401-11.401 11.401z"></path>
<path d="M10.665 24.556c-0.897 0-1.721-0.324-2.324-0.912-0.721-0.721-1.030-1.765-0.868-2.869l0.633-4.428c0.118-0.853 0.677-1.957 1.28-2.56l11.592-11.592c2.928-2.928 5.899-2.928 8.827 0 1.604 1.603 2.324 3.236 2.177 4.869-0.132 1.324-0.839 2.619-2.177 3.943l-11.592 11.592c-0.603 0.603-1.706 1.162-2.56 1.28l-4.428 0.633c-0.191 0.044-0.382 0.044-0.559 0.044zM22.537 3.755l-11.592 11.592c-0.28 0.28-0.603 0.927-0.662 1.309l-0.633 4.428c-0.059 0.427 0.029 0.78 0.25 1s0.574 0.309 1 0.25l4.428-0.633c0.382-0.059 1.044-0.382 1.309-0.662l11.592-11.592c0.956-0.956 1.456-1.809 1.53-2.604 0.088-0.956-0.412-1.971-1.53-3.104-2.354-2.354-3.972-1.692-5.693 0.015z"></path>
<path d="M27.362 12.993c-0.103 0-0.206-0.015-0.294-0.044-3.869-1.089-6.944-4.163-8.032-8.032-0.162-0.588 0.177-1.192 0.765-1.368 0.588-0.162 1.192 0.177 1.353 0.765 0.883 3.133 3.369 5.62 6.502 6.502 0.588 0.162 0.927 0.78 0.765 1.368-0.132 0.5-0.574 0.809-1.059 0.809z"></path>
</svg>
