<!-- Generated by IcoMoon.io -->
<svg version="1.1" xmlns="http://www.w3.org/2000/svg" width="32" height="32" viewBox="0 0 32 32">
<title>eye-slash</title>
<path d="M12.234 20.88c-0.283 0-0.566-0.104-0.789-0.328-1.221-1.221-1.89-2.843-1.89-4.555 0-3.558 2.888-6.445 6.445-6.445 1.712 0 3.334 0.67 4.555 1.89 0.208 0.208 0.328 0.491 0.328 0.789s-0.119 0.581-0.328 0.789l-7.532 7.532c-0.223 0.223-0.506 0.328-0.789 0.328zM16 11.786c-2.322 0-4.213 1.89-4.213 4.213 0 0.744 0.194 1.459 0.551 2.084l5.746-5.746c-0.625-0.357-1.34-0.551-2.084-0.551z"></path>
<path d="M6.473 25.689c-0.253 0-0.521-0.089-0.729-0.268-1.593-1.355-3.022-3.022-4.242-4.957-1.578-2.456-1.578-6.46 0-8.931 3.632-5.686 8.916-8.961 14.498-8.961 3.275 0 6.505 1.131 9.333 3.26 0.491 0.372 0.595 1.072 0.223 1.563s-1.072 0.595-1.563 0.223c-2.441-1.846-5.21-2.813-7.993-2.813-4.808 0-9.408 2.888-12.623 7.934-1.116 1.742-1.116 4.778 0 6.52s2.397 3.245 3.811 4.466c0.461 0.402 0.521 1.102 0.119 1.578-0.208 0.253-0.521 0.387-0.834 0.387z"></path>
<path d="M16.001 29.425c-1.98 0-3.915-0.402-5.776-1.191-0.566-0.238-0.834-0.893-0.595-1.459s0.893-0.834 1.459-0.595c1.578 0.67 3.23 1.012 4.897 1.012 4.808 0 9.408-2.888 12.623-7.934 1.116-1.742 1.116-4.778 0-6.52-0.461-0.729-0.968-1.429-1.503-2.084-0.387-0.476-0.313-1.176 0.164-1.578 0.476-0.387 1.176-0.328 1.578 0.164 0.581 0.714 1.146 1.489 1.652 2.292 1.578 2.456 1.578 6.46 0 8.931-3.632 5.686-8.916 8.961-14.498 8.961z"></path>
<path d="M17.026 22.354c-0.521 0-0.997-0.372-1.101-0.908-0.119-0.61 0.283-1.191 0.893-1.295 1.637-0.298 3.007-1.667 3.305-3.305 0.119-0.61 0.7-0.997 1.31-0.893 0.61 0.119 1.012 0.7 0.893 1.31-0.476 2.575-2.53 4.614-5.091 5.091-0.074-0.015-0.134 0-0.208 0z"></path>
<path d="M1.114 32c-0.283 0-0.566-0.104-0.789-0.328-0.432-0.432-0.432-1.146 0-1.578l11.119-11.119c0.432-0.432 1.146-0.432 1.578 0s0.432 1.146 0 1.578l-11.119 11.119c-0.223 0.223-0.506 0.328-0.789 0.328z"></path>
<path d="M19.767 13.348c-0.283 0-0.566-0.104-0.789-0.327-0.432-0.432-0.432-1.146 0-1.578l11.119-11.119c0.432-0.432 1.146-0.432 1.578 0s0.432 1.146 0 1.578l-11.119 11.119c-0.223 0.223-0.506 0.327-0.789 0.327z"></path>
</svg>
