<!-- Generated by IcoMoon.io -->
<svg version="1.1" xmlns="http://www.w3.org/2000/svg" width="32" height="32" viewBox="0 0 32 32">
<title>eye</title>
<path d="M16.007 22.573c-3.628 0-6.573-2.945-6.573-6.573s2.945-6.573 6.573-6.573c3.628 0 6.573 2.945 6.573 6.573s-2.945 6.573-6.573 6.573zM16.007 11.704c-2.368 0-4.296 1.928-4.296 4.296s1.928 4.296 4.296 4.296c2.368 0 4.296-1.928 4.296-4.296s-1.928-4.296-4.296-4.296z"></path>
<path d="M16.008 29.693c-5.708 0-11.097-3.34-14.801-9.139-1.609-2.505-1.609-6.588 0-9.108 3.719-5.799 9.108-9.139 14.801-9.139s11.082 3.34 14.786 9.139c1.609 2.505 1.609 6.588 0 9.108-3.704 5.799-9.093 9.139-14.786 9.139zM16.008 4.584c-4.903 0-9.594 2.945-12.873 8.091-1.139 1.776-1.139 4.873 0 6.649 3.279 5.146 7.97 8.091 12.873 8.091s9.594-2.945 12.873-8.091c1.139-1.776 1.139-4.873 0-6.649-3.279-5.146-7.97-8.091-12.873-8.091z"></path>
</svg>
