<!-- Generated by IcoMoon.io -->
<svg version="1.1" xmlns="http://www.w3.org/2000/svg" width="32" height="32" viewBox="0 0 32 32">
<title>folder-2</title>
<path d="M23.442 32h-14.884c-6.564 0-8.558-1.994-8.558-8.558v-14.884c0-6.564 1.994-8.558 8.558-8.558h2.233c2.605 0 3.423 0.848 4.465 2.233l2.233 2.977c0.491 0.655 0.566 0.744 1.488 0.744h4.465c6.564 0 8.558 1.994 8.558 8.558v8.93c0 6.564-1.994 8.558-8.558 8.558zM8.558 2.233c-5.328 0-6.326 1.012-6.326 6.326v14.884c0 5.314 0.997 6.326 6.326 6.326h14.884c5.328 0 6.326-1.012 6.326-6.326v-8.93c0-5.313-0.997-6.326-6.326-6.326h-4.465c-1.905 0-2.53-0.655-3.274-1.637l-2.233-2.977c-0.774-1.027-1.012-1.34-2.679-1.34h-2.233z"></path>
<path d="M27.907 8.752c-0.61 0-1.116-0.506-1.116-1.116v-2.054c0-2.352-0.997-3.349-3.349-3.349h-13.395c-0.61 0-1.116-0.506-1.116-1.116s0.506-1.116 1.116-1.116h13.395c3.602 0 5.581 1.98 5.581 5.581v2.054c0 0.61-0.506 1.116-1.116 1.116z"></path>
</svg>
