<!-- Generated by IcoMoon.io -->
<svg version="1.1" xmlns="http://www.w3.org/2000/svg" width="32" height="32" viewBox="0 0 32 32">
<title>gallery</title>
<path d="M20.455 31.992h-8.926c-8.078 0-11.529-3.451-11.529-11.529v-8.926c0-8.078 3.451-11.529 11.529-11.529h8.926c8.078 0 11.529 3.451 11.529 11.529v8.926c0 8.078-3.451 11.529-11.529 11.529zM11.529 2.239c-6.858 0-9.298 2.44-9.298 9.298v8.926c0 6.858 2.44 9.298 9.298 9.298h8.926c6.858 0 9.298-2.44 9.298-9.298v-8.926c0-6.858-2.44-9.298-9.298-9.298h-8.926z"></path>
<path d="M11.529 14.14c-2.261 0-4.091-1.83-4.091-4.091s1.83-4.091 4.091-4.091c2.261 0 4.091 1.83 4.091 4.091s-1.83 4.091-4.091 4.091zM11.529 8.19c-1.026 0-1.86 0.833-1.86 1.86s0.833 1.86 1.86 1.86c1.026 0 1.86-0.833 1.86-1.86s-0.833-1.86-1.86-1.86z"></path>
<path d="M2.114 27.455c-0.357 0-0.714-0.179-0.922-0.491-0.342-0.506-0.208-1.205 0.312-1.547l7.334-4.924c1.607-1.086 3.823-0.952 5.281 0.283l0.491 0.431c0.744 0.64 2.008 0.64 2.737 0l6.189-5.311c1.577-1.354 4.061-1.354 5.653 0l2.425 2.083c0.461 0.402 0.521 1.101 0.119 1.577-0.402 0.461-1.101 0.521-1.577 0.119l-2.425-2.083c-0.744-0.64-2.008-0.64-2.752 0l-6.189 5.311c-1.577 1.354-4.061 1.354-5.653 0l-0.491-0.431c-0.684-0.58-1.815-0.64-2.574-0.119l-7.334 4.924c-0.193 0.119-0.417 0.179-0.625 0.179z"></path>
</svg>
