<!-- Generated by IcoMoon.io -->
<svg version="1.1" xmlns="http://www.w3.org/2000/svg" width="32" height="32" viewBox="0 0 32 32">
<title>grid-1</title>
<path d="M20.465 32h-8.93c-8.082 0-11.535-3.453-11.535-11.535v-8.93c0-8.082 3.453-11.535 11.535-11.535h8.93c8.082 0 11.535 3.453 11.535 11.535v8.93c0 8.082-3.453 11.535-11.535 11.535zM11.535 2.233c-6.861 0-9.302 2.441-9.302 9.302v8.93c0 6.861 2.441 9.302 9.302 9.302h8.93c6.861 0 9.302-2.441 9.302-9.302v-8.93c0-6.861-2.441-9.302-9.302-9.302h-8.93z"></path>
<path d="M30.883 11.907h-29.723c-0.61 0-1.116-0.506-1.116-1.116s0.506-1.116 1.116-1.116h29.723c0.61 0 1.116 0.506 1.116 1.116s-0.506 1.116-1.116 1.116z"></path>
<path d="M30.883 22.326h-29.723c-0.61 0-1.116-0.506-1.116-1.116s0.506-1.116 1.116-1.116h29.723c0.61 0 1.116 0.506 1.116 1.116s-0.506 1.116-1.116 1.116z"></path>
<path d="M10.805 31.985c-0.61 0-1.116-0.506-1.116-1.116v-29.738c0-0.61 0.506-1.116 1.116-1.116s1.116 0.506 1.116 1.116v29.723c0 0.625-0.491 1.131-1.116 1.131z"></path>
<path d="M21.224 31.985c-0.61 0-1.116-0.506-1.116-1.116v-29.738c0-0.61 0.506-1.116 1.116-1.116s1.116 0.506 1.116 1.116v29.723c0 0.625-0.491 1.131-1.116 1.131z"></path>
</svg>
