<!-- Generated by IcoMoon.io -->
<svg version="1.1" xmlns="http://www.w3.org/2000/svg" width="32" height="32" viewBox="0 0 32 32">
<title>grow-arrow</title>
<path d="M31.609 7.061c0.25 0.25 0.391 0.589 0.391 0.943s-0.14 0.693-0.391 0.943l-12.673 12.673c-0.25 0.25-0.589 0.391-0.943 0.391s-0.693-0.14-0.943-0.391l-5.727-5.727-9.062 9.062c-0.252 0.243-0.589 0.377-0.938 0.374s-0.684-0.143-0.932-0.391c-0.247-0.247-0.388-0.582-0.391-0.932s0.131-0.687 0.374-0.938l10.005-10.005c0.25-0.25 0.589-0.391 0.943-0.391s0.693 0.14 0.943 0.391l5.727 5.727 11.73-11.73c0.25-0.25 0.589-0.391 0.943-0.391s0.693 0.141 0.943 0.391z"></path>
<path d="M21.328 8.004c0-0.354 0.141-0.693 0.391-0.943s0.59-0.391 0.943-0.391h8.004c0.354 0 0.693 0.141 0.943 0.391s0.391 0.59 0.391 0.943v8.004c0 0.354-0.141 0.693-0.391 0.943s-0.59 0.391-0.943 0.391-0.693-0.141-0.943-0.391c-0.25-0.25-0.391-0.59-0.391-0.943v-6.67h-6.67c-0.354 0-0.693-0.141-0.943-0.391s-0.391-0.589-0.391-0.943z"></path>
</svg>
