<!-- Generated by IcoMoon.io -->
<svg version="1.1" xmlns="http://www.w3.org/2000/svg" width="32" height="32" viewBox="0 0 32 32">
<title>hand-users</title>
<path d="M27.752 19.734l-6.037 1.767c0.084 0.971-0.403 1.892-1.249 2.38-0.55 0.318-1.218 0.429-1.876 0.261l-5.821-1.559c-0.059-0.016-0.115-0.043-0.163-0.080s-0.089-0.084-0.12-0.137c-0.062-0.107-0.079-0.234-0.047-0.354 0.016-0.059 0.043-0.115 0.080-0.163s0.084-0.089 0.137-0.12c0.107-0.062 0.234-0.079 0.354-0.047l5.794 1.553c0.84 0.225 1.71-0.276 1.935-1.117 0.198-0.859-0.251-1.704-1.117-1.935l-4.36-1.168c-0.054-0.015-0.104-0.039-0.149-0.071-1.393-0.988-2.426-1.346-3.371-1.322-0.951 0.025-1.875 0.44-3.007 0.994-1.049 0.513-2.071 1.001-3.081 1.48l2.701 6.485 1.039-0.505c0.762-0.371 1.544-0.436 2.357-0.2l4.808 1.396c1.269 0.368 2.925-0.276 4.239-0.787l9.317-3.591c0.91-0.351 1.656-1.556 1.357-2.525-0.434-1.407-2.728-0.925-3.719-0.635zM7.592 29.746l-2.312 0.96c-0.502 0.208-1.080-0.030-1.289-0.532l-3.914-9.399c-0.050-0.12-0.077-0.248-0.077-0.378s0.025-0.258 0.074-0.378c0.050-0.12 0.122-0.229 0.214-0.321s0.201-0.164 0.321-0.213l2.312-0.96c0.502-0.208 1.080 0.031 1.289 0.532l3.914 9.399c0.050 0.12 0.077 0.248 0.077 0.378s-0.025 0.258-0.074 0.378-0.122 0.229-0.214 0.321c-0.092 0.092-0.201 0.164-0.321 0.213zM24.641 3.544c0 1.285 1.042 2.326 2.326 2.326s2.326-1.041 2.326-2.326c0-1.284-1.041-2.326-2.326-2.326s-2.326 1.041-2.326 2.326zM18.34 5.286c0 1.285 1.041 2.326 2.326 2.326s2.326-1.041 2.326-2.326c0-1.284-1.041-2.326-2.326-2.326s-2.326 1.041-2.326 2.326zM25.699 13.985c0 2.779-10.065 2.779-10.065 0s2.254-5.033 5.033-5.033 5.032 2.253 5.032 5.033zM12.039 3.544c0 1.285 1.041 2.326 2.326 2.326s2.326-1.041 2.326-2.326c0-1.284-1.041-2.326-2.326-2.326s-2.326 1.041-2.326 2.326zM32 12.243c0-2.779-2.253-5.033-5.032-5.033-1.39 0-2.649 0.564-3.56 1.475 1.915 0.993 3.224 2.994 3.224 5.3 0 0.113-0.009 0.226-0.027 0.337 2.631 0.070 5.394-0.623 5.394-2.079zM14.727 14.322c-0.018-0.112-0.027-0.224-0.027-0.337 0-2.306 1.309-4.307 3.224-5.3-0.911-0.911-2.169-1.475-3.559-1.475-2.779 0-5.033 2.253-5.033 5.033 0 1.456 2.763 2.149 5.394 2.079z"></path>
</svg>
