<!-- Generated by IcoMoon.io -->
<svg version="1.1" xmlns="http://www.w3.org/2000/svg" width="1024" height="1024" viewBox="0 0 1024 1024">
<g id="icomoon-ignore">
</g>
<path d="M979.5 433.568l-409.594-409.594c-14.822-14.813-35.294-23.974-57.906-23.974s-43.084 9.161-57.906 23.975l-409.594 409.594c-14.832 14.725-24.012 35.124-24.012 57.668 0 0.101 0 0.204 0 0.305v-0.015 491.513c0 22.621 18.338 40.959 40.959 40.959v0h327.675c22.621 0 40.959-18.338 40.959-40.959v0-286.716h163.838v286.716c0 22.621 18.338 40.959 40.959 40.959v0h327.675c22.621 0 40.959-18.338 40.959-40.959v0-491.513c0-0.086 0-0.188 0-0.289 0-22.544-9.181-42.943-24.009-57.663l-0.005-0.005zM921.593 942.079h-245.757v-286.716c0-22.621-18.338-40.959-40.959-40.959v0h-245.757c-22.621 0-40.959 18.338-40.959 40.959v0 286.716h-245.757v-450.554l409.594-409.594 409.594 409.594z"></path>
</svg>
