<!-- Generated by IcoMoon.io -->
<svg version="1.1" xmlns="http://www.w3.org/2000/svg" width="32" height="32" viewBox="0 0 32 32">
<title>import-1</title>
<path d="M20.968 32h-9.935c-7.482 0-10.682-3.2-10.682-10.682v-0.198c0-6.766 2.667-10.027 8.64-10.59 0.61-0.046 1.189 0.411 1.25 1.036s-0.396 1.189-1.036 1.25c-4.785 0.442-6.568 2.697-6.568 8.32v0.198c0 6.202 2.194 8.396 8.396 8.396h9.935c6.202 0 8.396-2.194 8.396-8.396v-0.198c0-5.653-1.813-7.909-6.69-8.32-0.625-0.061-1.097-0.61-1.036-1.234s0.594-1.097 1.234-1.036c6.065 0.518 8.777 3.794 8.777 10.606v0.198c0 7.451-3.2 10.651-10.682 10.651z"></path>
<path d="M15.999 21.912c-0.625 0-1.143-0.518-1.143-1.143v-19.627c0-0.625 0.518-1.143 1.143-1.143s1.143 0.518 1.143 1.143v19.627c0 0.64-0.518 1.143-1.143 1.143z"></path>
<path d="M15.999 23.619c-0.29 0-0.579-0.107-0.808-0.335l-5.105-5.105c-0.442-0.442-0.442-1.173 0-1.615s1.173-0.442 1.615 0l4.297 4.297 4.297-4.297c0.442-0.442 1.173-0.442 1.615 0s0.442 1.173 0 1.615l-5.105 5.105c-0.229 0.229-0.518 0.335-0.808 0.335z"></path>
</svg>
