<!-- Generated by IcoMoon.io -->
<svg version="1.1" xmlns="http://www.w3.org/2000/svg" width="1024" height="1024" viewBox="0 0 1024 1024">
<title></title>
<g id="icomoon-ignore">
</g>
<path d="M728.442 783.317c-2.47-0.98-4.737-1.894-6.678-2.802-1.936-0.914-5.075-2.226-8.127-3.431-15.582-6.21-23.484-10.637-23.484-17.631 0.665-2.57 1.936-4.945 3.711-6.921s4.001-3.497 6.488-4.435c7.195-2.968 15.102-3.764 22.748-2.28 7.64 1.484 14.674 5.182 20.236 10.632 2.291 1.994 4.963 3.502 7.853 4.422 2.89 0.926 5.943 1.247 8.963 0.95s5.948-1.211 8.608-2.683c2.654-1.472 4.981-3.473 6.833-5.877s3.194-5.164 3.947-8.103c0.748-2.945 0.885-6.007 0.404-9.005s-1.567-5.871-3.194-8.429c-1.632-2.565-3.769-4.767-6.281-6.471-10.626-8.299-22.825-14.359-35.861-17.809v-13.357c0-5.906-2.345-11.564-6.518-15.743-4.179-4.173-9.836-6.518-15.743-6.518s-11.564 2.345-15.743 6.518c-4.173 4.179-6.518 9.836-6.518 15.743v14.288c-3.23 1.051-6.382 2.315-9.438 3.788-10.014 4.475-18.586 11.641-24.784 20.693-6.192 9.053-9.753 19.644-10.299 30.596 0 38.467 34.793 52.334 51.508 58.988 2.226 0.89 4.256 1.674 5.901 2.452 2.63 1.223 5.634 2.428 8.904 3.74 17.809 7.165 22.754 10.887 22.754 17.316-0.665 2.576-1.941 4.951-3.722 6.928s-4.007 3.497-6.495 4.429c-7.195 2.95-15.102 3.734-22.735 2.256-7.634-1.484-14.663-5.17-20.231-10.602-4.678-3.508-10.555-5.034-16.348-4.245s-11.047 3.823-14.621 8.453c-3.574 4.63-5.182 10.484-4.475 16.289 0.7 5.806 3.663 11.101 8.239 14.74 10.632 8.257 22.825 14.271 35.844 17.672v14.829c0 5.906 2.345 11.564 6.518 15.743 4.179 4.173 9.836 6.518 15.743 6.518s11.564-2.345 15.743-6.518c4.173-4.179 6.518-9.836 6.518-15.743v-16.094c3.212-0.914 6.358-2.036 9.415-3.366 10.021-4.47 18.604-11.63 24.801-20.682 6.192-9.053 9.76-19.649 10.305-30.607 0-38.33-34.241-52.043-50.689-58.632z"></path>
<path d="M712.348 578.784c-44.029 0-87.067 13.054-123.675 37.517-36.607 24.457-65.139 59.226-81.988 99.901-16.849 40.681-21.257 85.44-12.668 128.62s29.791 82.846 60.924 113.981c31.132 31.13 70.799 52.334 113.979 60.917 43.18 8.59 87.939 4.185 128.62-12.668 40.675-16.847 75.444-45.377 99.901-81.985 24.463-36.608 37.517-79.647 37.517-123.675-0.066-59.018-23.537-115.602-65.275-157.334-41.732-41.738-98.316-65.209-157.334-65.275zM712.348 979.48c-35.22 0-69.655-10.442-98.94-30.014-29.289-19.566-52.113-47.383-65.592-79.92-13.479-32.542-17.006-68.35-10.134-102.899 6.871-34.543 23.833-66.278 48.74-91.18 24.903-24.909 56.638-41.869 91.18-48.742 34.549-6.868 70.357-3.342 102.899 10.139 32.537 13.476 60.354 36.301 79.92 65.59 19.572 29.283 30.014 63.72 30.014 98.94-0.053 47.216-18.836 92.481-52.221 125.867s-78.649 52.168-125.867 52.221zM333.912 333.913c0-11.808-4.69-23.132-13.040-31.482s-19.674-13.040-31.482-13.040h-44.522c-11.808 0-23.132 4.69-31.482 13.040s-13.040 19.674-13.040 31.482v44.522c0 11.808 4.69 23.132 13.040 31.482s19.674 13.040 31.482 13.040h44.522c11.808 0 23.132-4.69 31.482-13.040s13.040-19.674 13.040-31.482v-44.522zM244.869 378.436v-44.522h44.522v44.522h-44.522zM333.912 512.001c0-11.808-4.69-23.132-13.040-31.482s-19.674-13.040-31.482-13.040h-44.522c-11.808 0-23.132 4.69-31.482 13.040s-13.040 19.674-13.040 31.482v44.522c0 11.808 4.69 23.134 13.040 31.48 8.349 8.352 19.674 13.041 31.482 13.041h44.522c11.808 0 23.132-4.689 31.482-13.041 8.349-8.347 13.040-19.672 13.040-31.48v-44.522zM244.869 556.523v-44.522h44.522v44.522h-44.522zM289.391 645.567h-44.522c-11.808 0-23.132 4.689-31.482 13.041-8.349 8.347-13.040 19.673-13.040 31.48v44.522c0 11.807 4.69 23.134 13.040 31.48 8.349 8.352 19.674 13.041 31.482 13.041h44.522c11.808 0 23.132-4.689 31.482-13.041 8.349-8.347 13.040-19.673 13.040-31.48v-44.522c0-11.807-4.69-23.134-13.040-31.48-8.349-8.352-19.674-13.041-31.482-13.041zM244.869 734.61v-44.522h44.522v44.522h-44.522z"></path>
<path d="M445.217 890.437h-244.87c-17.712 0-34.699-7.034-47.223-19.56s-19.56-29.509-19.56-47.223v-712.35c0-17.712 7.036-34.699 19.56-47.223s29.511-19.56 47.223-19.56h408.265c4.951 0.053 9.878 0.657 14.692 1.803v109.501c0 17.712 7.034 34.699 19.56 47.223s29.509 19.56 47.223 19.56h109.5c1.146 4.815 1.751 9.743 1.804 14.692v296.961c0 5.904 2.345 11.566 6.518 15.741 4.179 4.174 9.836 6.52 15.743 6.52s11.564-2.346 15.743-6.52c4.173-4.175 6.518-9.837 6.518-15.741v-296.961c-0.066-29.51-11.772-57.802-32.566-78.737l-125.997-125.996c-20.937-20.798-49.229-32.5-78.738-32.568h-408.265c-29.509 0.035-57.799 11.774-78.665 32.639s-32.604 49.156-32.639 78.665v712.35c0.035 29.509 11.774 57.802 32.639 78.667s49.156 32.601 78.665 32.638h244.87c5.904 0 11.566-2.345 15.741-6.518 4.174-4.179 6.52-9.836 6.52-15.743s-2.346-11.564-6.52-15.743c-4.175-4.173-9.837-6.518-15.741-6.518zM769.918 178.087h-79.83c-5.906 0-11.564-2.346-15.743-6.521-4.173-4.174-6.518-9.836-6.518-15.741v-79.827l102.092 102.089z"></path>
<path d="M512 178.087c0-5.904-2.346-11.566-6.52-15.741s-9.837-6.521-15.741-6.521h-267.131c-5.904 0-11.566 2.346-15.741 6.521s-6.521 9.836-6.521 15.741c0 5.904 2.346 11.566 6.521 15.741s9.836 6.521 15.741 6.521h267.131c5.904 0 11.566-2.346 15.741-6.521s6.52-9.836 6.52-15.741zM734.609 356.175c0-5.904-2.345-11.566-6.518-15.741-4.179-4.174-9.836-6.52-15.743-6.52h-311.653c-5.904 0-11.566 2.346-15.741 6.52s-6.52 9.837-6.52 15.741c0 5.904 2.346 11.566 6.52 15.741s9.837 6.52 15.741 6.52h311.653c5.906 0 11.564-2.346 15.743-6.52 4.173-4.175 6.518-9.837 6.518-15.741zM623.085 534.262c0-5.904-2.351-11.566-6.524-15.741s-9.836-6.52-15.737-6.52h-200.129c-5.904 0-11.566 2.346-15.741 6.52s-6.52 9.837-6.52 15.741c0 5.904 2.346 11.566 6.52 15.741s9.837 6.52 15.741 6.52h200.129c5.901 0 11.564-2.346 15.737-6.52s6.524-9.837 6.524-15.741zM400.695 690.089c-5.904 0-11.566 2.345-15.741 6.518-4.174 4.179-6.52 9.836-6.52 15.743s2.346 11.564 6.52 15.743c4.175 4.173 9.837 6.518 15.741 6.518h36.285c5.904 0 11.566-2.345 15.741-6.518 4.174-4.179 6.52-9.836 6.52-15.743s-2.346-11.564-6.52-15.743c-4.175-4.173-9.837-6.518-15.741-6.518h-36.285z"></path>
</svg>
