<!-- Generated by IcoMoon.io -->
<svg version="1.1" xmlns="http://www.w3.org/2000/svg" width="32" height="32" viewBox="0 0 32 32">
<title>like-1</title>
<path d="M22.598 31.583h-5.862c-0.864 0-2.746-0.262-3.749-1.265l-4.674-3.61 1.419-1.836 4.782 3.702c0.386 0.37 1.358 0.679 2.221 0.679h5.862c1.388 0 2.885-1.111 3.193-2.36l3.733-11.339c0.247-0.679 0.201-1.296-0.123-1.743-0.339-0.478-0.956-0.756-1.712-0.756h-6.171c-0.802 0-1.543-0.339-2.052-0.926-0.525-0.602-0.756-1.404-0.633-2.237l0.771-4.952c0.185-0.864-0.401-1.836-1.234-2.113-0.756-0.278-1.728 0.123-2.067 0.617l-6.325 9.41-1.913-1.28 6.325-9.41c0.972-1.45 3.101-2.144 4.767-1.512 1.928 0.632 3.163 2.761 2.731 4.736l-0.756 4.859c-0.015 0.108-0.015 0.262 0.093 0.386 0.077 0.077 0.185 0.123 0.309 0.123h6.171c1.512 0 2.823 0.633 3.594 1.728 0.756 1.064 0.91 2.468 0.417 3.826l-3.687 11.231c-0.571 2.237-2.947 4.042-5.43 4.042z"></path>
<path d="M5.785 29.886h-1.543c-2.854 0-4.242-1.342-4.242-4.088v-15.118c0-2.746 1.388-4.088 4.242-4.088h1.543c2.854 0 4.242 1.342 4.242 4.088v15.118c0 2.746-1.388 4.088-4.242 4.088zM4.242 8.905c-1.682 0-1.928 0.401-1.928 1.774v15.118c0 1.373 0.247 1.774 1.928 1.774h1.543c1.682 0 1.928-0.401 1.928-1.774v-15.118c0-1.373-0.247-1.774-1.928-1.774h-1.543z"></path>
</svg>
