<!-- Generated by IcoMoon.io -->
<svg version="1.1" xmlns="http://www.w3.org/2000/svg" width="32" height="32" viewBox="0 0 32 32">
<title>location-circle</title>
<path d="M21.343 21.143c3.405-5.343 2.977-4.677 3.075-4.816 1.24-1.749 1.895-3.807 1.895-5.952 0-5.689-4.616-10.375-10.313-10.375-5.678 0-10.313 4.677-10.313 10.375 0 2.144 0.669 4.256 1.949 6.028l3.021 4.74c-3.23 0.496-8.72 1.975-8.72 5.232 0 1.187 0.775 2.879 4.466 4.197 2.578 0.921 5.986 1.428 9.596 1.428 6.752 0 14.063-1.905 14.063-5.625 0-3.257-5.484-4.735-8.72-5.232zM9.204 15.372c-0.010-0.016-0.021-0.032-0.032-0.047-1.065-1.466-1.608-3.203-1.608-4.949 0-4.689 3.775-8.5 8.438-8.5 4.652 0 8.437 3.813 8.437 8.5 0 1.749-0.533 3.427-1.54 4.854-0.090 0.119 0.381-0.613-6.897 10.807l-6.797-10.665zM16.002 30.125c-7.375 0-12.188-2.168-12.188-3.75 0-1.063 2.473-2.812 7.953-3.494l3.444 5.404c0.085 0.133 0.202 0.242 0.34 0.318s0.293 0.115 0.451 0.115c0.158 0 0.313-0.040 0.451-0.115s0.255-0.185 0.34-0.318l3.444-5.404c5.48 0.682 7.953 2.43 7.953 3.494 0 1.569-4.769 3.75-12.187 3.75z"></path>
<path d="M16.002 5.688c-2.585 0-4.688 2.103-4.688 4.688s2.103 4.688 4.688 4.688c2.585 0 4.687-2.103 4.687-4.688s-2.103-4.688-4.687-4.688zM16.002 13.188c-1.551 0-2.813-1.262-2.813-2.813s1.262-2.813 2.813-2.813c1.551 0 2.813 1.262 2.813 2.813s-1.262 2.813-2.813 2.813z"></path>
</svg>
