<!-- Generated by IcoMoon.io -->
<svg version="1.1" xmlns="http://www.w3.org/2000/svg" width="1024" height="1024" viewBox="0 0 1024 1024">
<path d="M891.261 341.333h-151.704v-113.778c0-125.676-101.88-227.556-227.556-227.556s-227.556 101.88-227.556 227.556v0 113.778h-151.704c-41.892 0-75.852 33.96-75.852 75.852v0 530.963c0 41.892 33.96 75.852 75.852 75.852v0h758.519c41.892 0 75.852-33.96 75.852-75.852v0-530.963c0-41.892-33.96-75.852-75.852-75.852v0zM360.298 227.556c0-83.783 67.921-151.704 151.704-151.704s151.704 67.921 151.704 151.704v0 113.778h-303.407zM891.261 948.148h-758.519v-530.963h758.519v530.963zM568.891 682.667c0 31.419-25.47 56.889-56.889 56.889s-56.889-25.47-56.889-56.889c0-31.419 25.47-56.889 56.889-56.889v0c31.419 0 56.889 25.47 56.889 56.889v0z"></path>
</svg>
