<!-- Generated by IcoMoon.io -->
<svg version="1.1" xmlns="http://www.w3.org/2000/svg" width="32" height="32" viewBox="0 0 32 32">
<title>lock-circle</title>
<path d="M20.465 15.628c-0.61 0-1.116-0.506-1.116-1.116v-1.488c0-2.173-0.536-3.349-3.349-3.349s-3.349 1.176-3.349 3.349v1.488c0 0.61-0.506 1.116-1.116 1.116s-1.116-0.506-1.116-1.116v-1.488c0-1.384 0-5.581 5.581-5.581s5.581 4.197 5.581 5.581v1.488c0 0.61-0.506 1.116-1.116 1.116z"></path>
<path d="M16.001 20.986c-1.101 0-2.009-0.908-2.009-2.009s0.908-2.009 2.009-2.009c1.101 0 2.009 0.908 2.009 2.009s-0.908 2.009-2.009 2.009zM16.001 18.753c-0.119 0-0.223 0.104-0.223 0.223 0 0.253 0.447 0.253 0.447 0 0-0.119-0.104-0.223-0.223-0.223z"></path>
<path d="M19.721 24.558h-7.442c-3.572 0-4.837-1.265-4.837-4.837v-1.488c0-3.572 1.265-4.837 4.837-4.837h7.442c3.572 0 4.837 1.265 4.837 4.837v1.488c0 3.572-1.265 4.837-4.837 4.837zM12.279 15.628c-2.367 0-2.605 0.238-2.605 2.605v1.488c0 2.366 0.238 2.605 2.605 2.605h7.442c2.366 0 2.605-0.238 2.605-2.605v-1.488c0-2.367-0.238-2.605-2.605-2.605h-7.442z"></path>
<path d="M16 32c-8.826 0-16-7.174-16-16s7.174-16 16-16c8.826 0 16 7.174 16 16s-7.174 16-16 16zM16 2.233c-7.591 0-13.767 6.177-13.767 13.767s6.177 13.767 13.767 13.767c7.591 0 13.767-6.177 13.767-13.767s-6.177-13.767-13.767-13.767z"></path>
</svg>
