<!-- Generated by IcoMoon.io -->
<svg version="1.1" xmlns="http://www.w3.org/2000/svg" width="32" height="32" viewBox="0 0 32 32">
<title>login</title>
<path d="M21.318 31.649h-0.198c-6.766 0-10.026-2.667-10.59-8.64-0.061-0.625 0.396-1.189 1.036-1.25 0.625-0.061 1.189 0.411 1.249 1.036 0.442 4.785 2.697 6.567 8.32 6.567h0.198c6.202 0 8.396-2.194 8.396-8.396v-9.935c0-6.202-2.194-8.396-8.396-8.396h-0.198c-5.653 0-7.908 1.813-8.32 6.689-0.076 0.625-0.594 1.097-1.249 1.036-0.64-0.046-1.097-0.61-1.051-1.234 0.518-6.065 3.794-8.777 10.605-8.777h0.198c7.482 0 10.682 3.2 10.682 10.682v9.935c0 7.482-3.2 10.682-10.682 10.682z"></path>
<path d="M20.769 17.143h-19.626c-0.625 0-1.143-0.518-1.143-1.143s0.518-1.143 1.143-1.143h19.626c0.625 0 1.143 0.518 1.143 1.143s-0.503 1.143-1.143 1.143z"></path>
<path d="M17.371 22.248c-0.29 0-0.579-0.107-0.808-0.335-0.442-0.442-0.442-1.173 0-1.615l4.297-4.297-4.297-4.297c-0.442-0.442-0.442-1.173 0-1.615s1.173-0.442 1.615 0l5.105 5.105c0.442 0.442 0.442 1.173 0 1.615l-5.105 5.105c-0.229 0.229-0.518 0.335-0.808 0.335z"></path>
</svg>
