<!-- Generated by IcoMoon.io -->
<svg version="1.1" xmlns="http://www.w3.org/2000/svg" width="32" height="32" viewBox="0 0 32 32">
<title>logout</title>
<path d="M21.047 32h-0.203c-6.917 0-10.251-2.726-10.828-8.833-0.062-0.639 0.405-1.215 1.059-1.278 0.623-0.062 1.215 0.421 1.278 1.059 0.452 4.892 2.758 6.715 8.506 6.715h0.203c6.341 0 8.584-2.243 8.584-8.584v-10.158c0-6.341-2.243-8.584-8.584-8.584h-0.203c-5.78 0-8.086 1.854-8.506 6.839-0.078 0.639-0.623 1.122-1.278 1.059-0.654-0.047-1.122-0.623-1.075-1.262 0.53-6.201 3.879-8.974 10.843-8.974h0.203c7.649 0 10.921 3.272 10.921 10.921v10.158c0 7.649-3.272 10.921-10.921 10.921z"></path>
<path d="M20.67 17.168h-17.729c-0.639 0-1.168-0.53-1.168-1.168s0.53-1.168 1.168-1.168h17.729c0.639 0 1.168 0.53 1.168 1.168s-0.53 1.168-1.168 1.168z"></path>
<path d="M6.416 22.388c-0.296 0-0.592-0.109-0.826-0.343l-5.219-5.219c-0.452-0.452-0.452-1.2 0-1.651l5.219-5.219c0.452-0.452 1.2-0.452 1.651 0s0.452 1.2 0 1.651l-4.393 4.393 4.393 4.393c0.452 0.452 0.452 1.2 0 1.651-0.218 0.234-0.53 0.343-0.826 0.343z"></path>
</svg>
