<!-- Generated by IcoMoon.io -->
<svg version="1.1" xmlns="http://www.w3.org/2000/svg" width="32" height="32" viewBox="0 0 32 32">
<title>man</title>
<path d="M13.268 32c-7.321 0-13.268-5.947-13.268-13.268s5.947-13.268 13.268-13.268c7.321 0 13.268 5.947 13.268 13.268s-5.947 13.268-13.268 13.268zM13.268 7.805c-6.025 0-10.927 4.901-10.927 10.927s4.901 10.927 10.927 10.927c6.025 0 10.927-4.901 10.927-10.927s-4.901-10.927-10.927-10.927z"></path>
<path d="M22.245 10.927c-0.297 0-0.593-0.109-0.827-0.343-0.453-0.453-0.453-1.202 0-1.655l8.585-8.585c0.453-0.453 1.202-0.453 1.655 0s0.453 1.202 0 1.655l-8.585 8.585c-0.234 0.234-0.531 0.343-0.827 0.343z"></path>
<path d="M30.829 12.488c-0.64 0-1.171-0.531-1.171-1.171v-8.976h-8.976c-0.64 0-1.171-0.531-1.171-1.171s0.531-1.171 1.171-1.171h10.146c0.64 0 1.171 0.531 1.171 1.171v10.146c0 0.64-0.531 1.171-1.171 1.171z"></path>
</svg>
