<!-- Generated by IcoMoon.io -->
<svg version="1.1" xmlns="http://www.w3.org/2000/svg" width="32" height="32" viewBox="0 0 32 32">
<title>map</title>
<path d="M21.298 30.208c-0.649 0-1.298-0.136-1.826-0.392l-7.925-3.97c-0.453-0.226-1.343-0.211-1.781 0.045l-3.562 2.038c-1.54 0.875-3.125 0.996-4.317 0.287-1.208-0.694-1.887-2.113-1.887-3.894v-14.672c0-1.374 0.906-2.928 2.098-3.608l6.536-3.743c1.102-0.634 2.777-0.679 3.909-0.106l7.925 3.97c0.453 0.226 1.328 0.196 1.781-0.045l3.547-2.023c1.54-0.875 3.125-0.996 4.317-0.287 1.208 0.694 1.887 2.113 1.887 3.894v14.687c0 1.374-0.906 2.928-2.098 3.608l-6.536 3.743c-0.574 0.302-1.328 0.468-2.068 0.468zM10.717 23.431c0.649 0 1.298 0.136 1.826 0.392l7.925 3.97c0.453 0.226 1.328 0.196 1.781-0.045l6.536-3.743c0.483-0.272 0.951-1.087 0.951-1.63v-14.687c0-0.951-0.272-1.66-0.77-1.932-0.483-0.272-1.238-0.166-2.053 0.302l-3.547 2.023c-1.102 0.634-2.777 0.679-3.909 0.106l-7.925-3.97c-0.453-0.226-1.328-0.196-1.781 0.045l-6.536 3.743c-0.483 0.272-0.951 1.087-0.951 1.645v14.687c0 0.951 0.272 1.66 0.755 1.932 0.483 0.287 1.238 0.166 2.068-0.302l3.547-2.023c0.589-0.347 1.343-0.513 2.083-0.513z"></path>
<path d="M10.598 24.684c-0.619 0-1.132-0.513-1.132-1.132v-19.623c0-0.619 0.513-1.132 1.132-1.132s1.132 0.513 1.132 1.132v19.623c0 0.619-0.513 1.132-1.132 1.132z"></path>
<path d="M21.421 29.212c-0.619 0-1.132-0.513-1.132-1.132v-20.196c0-0.619 0.513-1.132 1.132-1.132s1.132 0.513 1.132 1.132v20.196c0 0.619-0.513 1.132-1.132 1.132z"></path>
</svg>
