<!-- Generated by IcoMoon.io -->
<svg version="1.1" xmlns="http://www.w3.org/2000/svg" width="32" height="32" viewBox="0 0 32 32">
<title>maximize-21</title>
<path d="M1.116 12.651c-0.61 0-1.116-0.506-1.116-1.116v-3.721c0-4.301 3.513-7.814 7.814-7.814h3.721c0.61 0 1.116 0.506 1.116 1.116s-0.506 1.116-1.116 1.116h-3.721c-3.081 0-5.581 2.5-5.581 5.581v3.721c0 0.61-0.506 1.116-1.116 1.116z"></path>
<path d="M30.884 12.651c-0.61 0-1.116-0.506-1.116-1.116v-3.721c0-3.081-2.5-5.581-5.581-5.581h-3.721c-0.61 0-1.116-0.506-1.116-1.116s0.506-1.116 1.116-1.116h3.721c4.301 0 7.814 3.513 7.814 7.814v3.721c0 0.61-0.506 1.116-1.116 1.116z"></path>
<path d="M24.186 32h-2.233c-0.61 0-1.116-0.506-1.116-1.116s0.506-1.116 1.116-1.116h2.233c3.081 0 5.581-2.5 5.581-5.581v-2.233c0-0.61 0.506-1.116 1.116-1.116s1.116 0.506 1.116 1.116v2.233c0 4.301-3.513 7.814-7.814 7.814z"></path>
<path d="M11.535 32h-3.721c-4.301 0-7.814-3.513-7.814-7.814v-3.721c0-0.61 0.506-1.116 1.116-1.116s1.116 0.506 1.116 1.116v3.721c0 3.081 2.5 5.581 5.581 5.581h3.721c0.61 0 1.116 0.506 1.116 1.116s-0.506 1.116-1.116 1.116z"></path>
</svg>
