<!-- Generated by IcoMoon.io -->
<svg version="1.1" xmlns="http://www.w3.org/2000/svg" width="1024" height="1024" viewBox="0 0 1024 1024">
<title></title>
<g id="icomoon-ignore">
</g>
<path d="M981.331 554.673h-938.664c-23.553 0-42.667-19.116-42.667-42.667s19.116-42.666 42.667-42.666h938.664c23.553 0 42.669 19.116 42.669 42.666s-19.117 42.667-42.669 42.667zM981.331 227.558h-938.664c-23.553 0-42.667-19.116-42.667-42.667s19.116-42.667 42.667-42.667h938.664c23.553 0 42.669 19.116 42.669 42.667s-19.117 42.667-42.669 42.667zM981.331 881.777h-938.664c-23.553 0-42.667-19.117-42.667-42.669s19.116-42.662 42.667-42.662h938.664c23.553 0 42.669 19.11 42.669 42.662s-19.117 42.669-42.669 42.669z"></path>
</svg>
