<!-- Generated by IcoMoon.io -->
<svg version="1.1" xmlns="http://www.w3.org/2000/svg" width="32" height="32" viewBox="0 0 32 32">
<title>message-text</title>
<path d="M16 32c-1.024 0-1.989-0.519-2.672-1.425l-2.226-2.968c-0.045-0.059-0.223-0.134-0.297-0.148h-0.742c-6.189 0-10.019-1.677-10.019-10.019v-7.421c0-6.56 3.458-10.019 10.019-10.019h11.874c6.56 0 10.019 3.458 10.019 10.019v7.421c0 6.56-3.458 10.019-10.019 10.019h-0.742c-0.119 0-0.223 0.059-0.297 0.148l-2.226 2.968c-0.683 0.905-1.648 1.425-2.672 1.425zM10.063 2.226c-5.314 0-7.792 2.479-7.792 7.792v7.421c0 6.709 2.301 7.792 7.792 7.792h0.742c0.757 0 1.618 0.43 2.078 1.039l2.226 2.968c0.519 0.683 1.262 0.683 1.781 0l2.226-2.968c0.49-0.653 1.262-1.039 2.078-1.039h0.742c5.314 0 7.792-2.479 7.792-7.792v-7.421c0-5.314-2.479-7.792-7.792-7.792h-11.874z"></path>
<path d="M23.421 11.132h-14.842c-0.609 0-1.113-0.505-1.113-1.113s0.505-1.113 1.113-1.113h14.842c0.609 0 1.113 0.505 1.113 1.113s-0.505 1.113-1.113 1.113z"></path>
<path d="M17.484 18.553h-8.905c-0.609 0-1.113-0.505-1.113-1.113s0.505-1.113 1.113-1.113h8.905c0.609 0 1.113 0.505 1.113 1.113s-0.505 1.113-1.113 1.113z"></path>
</svg>
