<!-- Generated by IcoMoon.io -->
<svg version="1.1" xmlns="http://www.w3.org/2000/svg" width="1024" height="1024" viewBox="0 0 1024 1024">
<title></title>
<g id="icomoon-ignore">
</g>
<path fill="#000" d="M625.777 512c0 62.837-50.94 113.777-113.777 113.777s-113.777-50.94-113.777-113.777c0-62.837 50.94-113.777 113.777-113.777s113.777 50.94 113.777 113.777z"></path>
<path fill="#000" d="M625.777 113.777c0 62.837-50.94 113.777-113.777 113.777s-113.777-50.94-113.777-113.777c0-62.837 50.94-113.777 113.777-113.777s113.777 50.94 113.777 113.777z"></path>
<path fill="#000" d="M625.777 910.223c0 62.837-50.94 113.777-113.777 113.777s-113.777-50.94-113.777-113.777c0-62.837 50.94-113.777 113.777-113.777s113.777 50.94 113.777 113.777z"></path>
</svg>
