<!-- Generated by IcoMoon.io -->
<svg version="1.1" xmlns="http://www.w3.org/2000/svg" width="32" height="32" viewBox="0 0 32 32">
<title>more</title>
<path d="M4.513 20.513c-2.494 0-4.513-2.018-4.513-4.513s2.018-4.513 4.513-4.513c2.494 0 4.513 2.018 4.513 4.513s-2.018 4.513-4.513 4.513zM4.513 13.949c-1.132 0-2.051 0.919-2.051 2.051s0.919 2.051 2.051 2.051c1.132 0 2.051-0.919 2.051-2.051s-0.919-2.051-2.051-2.051z"></path>
<path d="M27.487 20.513c-2.494 0-4.513-2.018-4.513-4.513s2.018-4.513 4.513-4.513c2.494 0 4.513 2.018 4.513 4.513s-2.018 4.513-4.513 4.513zM27.487 13.949c-1.132 0-2.051 0.919-2.051 2.051s0.919 2.051 2.051 2.051c1.132 0 2.051-0.919 2.051-2.051s-0.919-2.051-2.051-2.051z"></path>
<path d="M16 20.513c-2.494 0-4.513-2.018-4.513-4.513s2.018-4.513 4.513-4.513c2.494 0 4.513 2.018 4.513 4.513s-2.018 4.513-4.513 4.513zM16 13.949c-1.132 0-2.051 0.919-2.051 2.051s0.919 2.051 2.051 2.051c1.132 0 2.051-0.919 2.051-2.051s-0.919-2.051-2.051-2.051z"></path>
</svg>
