<!-- Generated by IcoMoon.io -->
<svg version="1.1" xmlns="http://www.w3.org/2000/svg" width="32" height="32" viewBox="0 0 32 32">
<title>note-fill</title>
<path d="M29.333 0h-26.667c-1.473 0-2.667 1.194-2.667 2.667v0 26.667c0 1.473 1.194 2.667 2.667 2.667v0h18.115c0.001 0 0.003 0 0.004 0 0.735 0 1.4-0.299 1.881-0.782l8.552-8.552c0.483-0.481 0.782-1.146 0.782-1.881 0-0.002 0-0.003 0-0.005v0-18.115c0-1.473-1.194-2.667-2.667-2.667v0zM10.667 9.333h10.667c0.736 0 1.333 0.597 1.333 1.333s-0.597 1.333-1.333 1.333v0h-10.667c-0.736 0-1.333-0.597-1.333-1.333s0.597-1.333 1.333-1.333v0zM16 22.667h-5.333c-0.736 0-1.333-0.597-1.333-1.333s0.597-1.333 1.333-1.333v0h5.333c0.736 0 1.333 0.597 1.333 1.333s-0.597 1.333-1.333 1.333v0zM10.667 17.333c-0.736 0-1.333-0.597-1.333-1.333s0.597-1.333 1.333-1.333v0h10.667c0.736 0 1.333 0.597 1.333 1.333s-0.597 1.333-1.333 1.333v0zM21.333 28.782v-7.448h7.45z"></path>
</svg>
