<!-- Generated by IcoMoon.io -->
<svg version="1.1" xmlns="http://www.w3.org/2000/svg" width="32" height="32" viewBox="0 0 32 32">
<title>note-21</title>
<path d="M21.953 32h-11.907c-4.495 0-7.070-2.575-7.070-7.070v-14.512c0-4.688 2.381-7.070 7.070-7.070 0.61 0 1.116 0.506 1.116 1.116 0 0.595 0.238 1.161 0.655 1.578s0.982 0.655 1.578 0.655h5.209c1.235 0 2.233-0.997 2.233-2.233 0-0.61 0.506-1.116 1.116-1.116 4.688 0 7.070 2.381 7.070 7.070v14.512c0 4.495-2.575 7.070-7.070 7.070zM9.079 5.611c-2.352 0.194-3.87 1.25-3.87 4.807v14.512c0 3.304 1.533 4.837 4.837 4.837h11.907c3.304 0 4.837-1.533 4.837-4.837v-14.512c0-3.557-1.518-4.599-3.87-4.807-0.506 1.905-2.247 3.319-4.316 3.319h-5.209c-1.191 0-2.307-0.461-3.155-1.31-0.566-0.566-0.953-1.25-1.161-2.009z"></path>
<path d="M18.605 8.93h-5.209c-1.191 0-2.307-0.461-3.155-1.31s-1.31-1.965-1.31-3.155c0-2.456 2.009-4.465 4.465-4.465h5.209c1.191 0 2.307 0.461 3.155 1.31s1.31 1.965 1.31 3.155c0 2.456-2.009 4.465-4.465 4.465zM13.395 2.233c-1.235 0-2.233 0.997-2.233 2.233 0 0.595 0.238 1.161 0.655 1.578s0.982 0.655 1.578 0.655h5.209c1.235 0 2.233-0.997 2.233-2.233 0-0.595-0.238-1.161-0.655-1.578s-0.982-0.655-1.578-0.655h-5.209z"></path>
<path d="M16 18.605h-5.954c-0.61 0-1.116-0.506-1.116-1.116s0.506-1.116 1.116-1.116h5.954c0.61 0 1.116 0.506 1.116 1.116s-0.506 1.116-1.116 1.116z"></path>
<path d="M21.953 24.558h-11.907c-0.61 0-1.116-0.506-1.116-1.116s0.506-1.116 1.116-1.116h11.907c0.61 0 1.116 0.506 1.116 1.116s-0.506 1.116-1.116 1.116z"></path>
</svg>
