<!-- Generated by IcoMoon.io -->
<svg version="1.1" xmlns="http://www.w3.org/2000/svg" width="1024" height="1024" viewBox="0 0 1024 1024">
<title></title>
<g id="icomoon-ignore">
</g>
<path fill="#000" d="M845.394 357.209c-98.59 0-178.605-80.015-178.605-178.605s80.015-178.605 178.605-178.605c98.59 0 178.605 80.015 178.605 178.605s-80.015 178.605-178.605 178.605zM845.394 71.442c-59.059 0-107.163 48.104-107.163 107.163s48.104 107.163 107.163 107.163c59.059 0 107.163-48.104 107.163-107.163s-48.104-107.163-107.163-107.163z"></path>
<path fill="#000" d="M511.999 595.349h-238.139c-19.527 0-35.721-16.194-35.721-35.721s16.194-35.721 35.721-35.721h238.139c19.527 0 35.721 16.194 35.721 35.721s-16.194 35.721-35.721 35.721z"></path>
<path fill="#000" d="M702.511 785.86h-428.651c-19.527 0-35.721-16.194-35.721-35.721s16.194-35.721 35.721-35.721h428.651c19.527 0 35.721 16.194 35.721 35.721s-16.194 35.721-35.721 35.721z"></path>
<path fill="#000" d="M654.883 1024h-285.767c-258.619 0-369.116-110.497-369.116-369.116v-285.767c0-258.619 110.497-369.116 369.116-369.116h238.139c19.527 0 35.721 16.194 35.721 35.721s-16.194 35.721-35.721 35.721h-238.139c-219.564 0-297.675 78.109-297.675 297.675v285.767c0 219.564 78.109 297.675 297.675 297.675h285.767c219.564 0 297.675-78.109 297.675-297.675v-238.139c0-19.527 16.194-35.721 35.721-35.721s35.721 16.194 35.721 35.721v238.139c0 258.619-110.497 369.116-369.116 369.116z"></path>
</svg>
