<!-- Generated by IcoMoon.io -->
<svg version="1.1" xmlns="http://www.w3.org/2000/svg" width="32" height="32" viewBox="0 0 32 32">
<title>notification-1</title>
<path d="M26.419 11.163c-3.081 0-5.581-2.5-5.581-5.581s2.5-5.581 5.581-5.581c3.081 0 5.581 2.5 5.581 5.581s-2.5 5.581-5.581 5.581zM26.419 2.233c-1.846 0-3.349 1.503-3.349 3.349s1.503 3.349 3.349 3.349c1.846 0 3.349-1.503 3.349-3.349s-1.503-3.349-3.349-3.349z"></path>
<path d="M20.465 32h-8.93c-8.082 0-11.535-3.453-11.535-11.535v-8.93c0-8.082 3.453-11.535 11.535-11.535h7.442c0.61 0 1.116 0.506 1.116 1.116s-0.506 1.116-1.116 1.116h-7.442c-6.861 0-9.302 2.441-9.302 9.302v8.93c0 6.861 2.441 9.302 9.302 9.302h8.93c6.861 0 9.302-2.441 9.302-9.302v-7.442c0-0.61 0.506-1.116 1.116-1.116s1.116 0.506 1.116 1.116v7.442c0 8.082-3.453 11.535-11.535 11.535z"></path>
</svg>
