<!-- Generated by IcoMoon.io -->
<svg version="1.1" xmlns="http://www.w3.org/2000/svg" width="32" height="32" viewBox="0 0 32 32">
<title>notification</title>
<path d="M16.038 28.627c-3.447 0-6.894-0.547-10.164-1.642-1.243-0.429-2.19-1.302-2.604-2.441-0.429-1.139-0.281-2.397 0.399-3.521l1.701-2.826c0.355-0.592 0.681-1.775 0.681-2.471v-4.276c0-5.503 4.483-9.986 9.986-9.986s9.986 4.483 9.986 9.986v4.276c0 0.681 0.326 1.879 0.681 2.485l1.687 2.811c0.636 1.065 0.755 2.352 0.326 3.521s-1.361 2.056-2.53 2.441c-3.255 1.095-6.702 1.642-10.149 1.642zM16.038 3.683c-4.276 0-7.767 3.477-7.767 7.767v4.276c0 1.080-0.444 2.678-0.991 3.61l-1.701 2.826c-0.325 0.547-0.414 1.124-0.222 1.613 0.178 0.503 0.621 0.888 1.228 1.095 6.184 2.071 12.738 2.071 18.922 0 0.533-0.178 0.947-0.577 1.139-1.11s0.148-1.11-0.148-1.598l-1.701-2.826c-0.562-0.962-0.991-2.545-0.991-3.625v-4.261c0-4.29-3.477-7.767-7.767-7.767z"></path>
<path d="M18.789 4.083c-0.104 0-0.207-0.015-0.311-0.044-0.429-0.118-0.843-0.207-1.243-0.266-1.258-0.163-2.471-0.074-3.61 0.266-0.414 0.133-0.858 0-1.139-0.311s-0.37-0.755-0.207-1.154c0.607-1.553 2.086-2.574 3.772-2.574s3.166 1.006 3.773 2.574c0.148 0.399 0.074 0.843-0.207 1.154-0.222 0.237-0.533 0.355-0.828 0.355z"></path>
<path d="M16.038 32c-1.465 0-2.885-0.592-3.92-1.627s-1.627-2.456-1.627-3.921h2.219c0 0.873 0.355 1.731 0.976 2.352s1.479 0.976 2.352 0.976c1.834 0 3.329-1.494 3.329-3.329h2.219c0 3.062-2.485 5.548-5.548 5.548z"></path>
</svg>
