<!-- Generated by IcoMoon.io -->
<svg version="1.1" xmlns="http://www.w3.org/2000/svg" width="32" height="32" viewBox="0 0 32 32">
<title>people</title>
<path d="M24.948 9.908c-0.045 0-0.074 0-0.119 0h-0.074c-2.812-0.089-4.909-2.261-4.909-4.939 0-2.737 2.232-4.954 4.954-4.954s4.954 2.232 4.954 4.954c-0.015 2.693-2.113 4.865-4.79 4.954 0-0.015 0-0.015-0.015-0.015zM24.8 2.232c-1.503 0-2.722 1.22-2.722 2.722 0 1.473 1.145 2.663 2.618 2.722 0.015-0.015 0.134-0.015 0.268 0 1.443-0.074 2.559-1.265 2.574-2.722 0-1.503-1.22-2.722-2.737-2.722z"></path>
<path d="M24.964 20.872c-0.58 0-1.16-0.045-1.741-0.149-0.61-0.104-1.012-0.684-0.907-1.294s0.684-1.012 1.294-0.907c1.83 0.312 3.764-0.030 5.058-0.892 0.699-0.461 1.071-1.042 1.071-1.622s-0.387-1.146-1.071-1.607c-1.294-0.863-3.258-1.205-5.103-0.878-0.61 0.119-1.19-0.298-1.294-0.907s0.298-1.19 0.907-1.294c2.425-0.431 4.939 0.030 6.724 1.22 1.309 0.878 2.068 2.127 2.068 3.466 0 1.324-0.744 2.589-2.068 3.481-1.354 0.893-3.109 1.383-4.939 1.383z"></path>
<path d="M7.052 9.908c-0.015 0-0.030 0-0.030 0-2.678-0.089-4.775-2.261-4.79-4.939 0-2.737 2.232-4.969 4.954-4.969s4.954 2.232 4.954 4.954c0 2.693-2.098 4.865-4.775 4.954l-0.312-1.116 0.104 1.116c-0.030 0-0.074 0-0.104 0zM7.201 7.676c0.089 0 0.164 0 0.253 0.015 1.324-0.060 2.484-1.25 2.484-2.722 0-1.503-1.22-2.722-2.722-2.722s-2.722 1.22-2.722 2.722c0 1.458 1.131 2.633 2.574 2.722 0.015-0.015 0.074-0.015 0.134-0.015z"></path>
<path d="M7.036 20.872c-1.83 0-3.585-0.491-4.939-1.383-1.309-0.878-2.068-2.142-2.068-3.481 0-1.324 0.759-2.589 2.068-3.466 1.785-1.19 4.299-1.651 6.724-1.22 0.61 0.104 1.012 0.684 0.908 1.294s-0.684 1.026-1.294 0.907c-1.845-0.327-3.794 0.015-5.103 0.878-0.699 0.461-1.071 1.027-1.071 1.607s0.387 1.161 1.071 1.622c1.294 0.863 3.228 1.205 5.058 0.892 0.61-0.104 1.19 0.312 1.294 0.907 0.104 0.61-0.298 1.19-0.908 1.294-0.58 0.104-1.16 0.149-1.741 0.149z"></path>
<path d="M16.022 21.021c-0.045 0-0.074 0-0.119 0h-0.074c-2.812-0.089-4.909-2.261-4.909-4.939 0-2.737 2.232-4.954 4.954-4.954s4.954 2.232 4.954 4.954c-0.015 2.693-2.113 4.865-4.79 4.954 0-0.015 0-0.015-0.015-0.015zM15.874 13.345c-1.503 0-2.722 1.22-2.722 2.722 0 1.473 1.146 2.663 2.618 2.722 0.015-0.015 0.134-0.015 0.268 0 1.443-0.074 2.559-1.265 2.574-2.722 0-1.488-1.22-2.722-2.737-2.722z"></path>
<path d="M16.021 32c-1.785 0-3.57-0.461-4.954-1.398-1.309-0.878-2.068-2.127-2.068-3.466 0-1.324 0.744-2.603 2.068-3.481 2.782-1.845 7.141-1.845 9.908 0 1.309 0.878 2.068 2.127 2.068 3.466 0 1.324-0.744 2.603-2.068 3.481-1.384 0.922-3.169 1.398-4.954 1.398zM12.302 25.529c-0.699 0.461-1.071 1.041-1.071 1.622s0.387 1.145 1.071 1.607c2.008 1.354 5.415 1.354 7.424 0 0.699-0.461 1.071-1.041 1.071-1.622s-0.387-1.145-1.071-1.607c-1.993-1.354-5.4-1.339-7.424 0z"></path>
</svg>
