<!-- Generated by IcoMoon.io -->
<svg version="1.1" xmlns="http://www.w3.org/2000/svg" width="1024" height="1024" viewBox="0 0 1024 1024">
<path d="M974.701 688.432l-241.871-108.391c-9.5-4.172-20.574-6.6-32.215-6.6-16.942 0-32.684 5.143-45.748 13.953l0.291-0.186c-1.455 0.966-2.707 1.908-3.901 2.918l0.061-0.051-124.622 106.241c-78.951-38.349-160.462-119.246-198.811-197.173l106.394-126.516c1.024-1.28 1.997-2.56 2.918-3.942 8.382-12.643 13.374-28.168 13.374-44.858 0-11.654-2.433-22.741-6.82-32.777l0.206 0.527v-0.614l-108.391-241.615c-12.923-29.28-41.701-49.347-75.166-49.347-3.5 0-6.948 0.219-10.332 0.645l0.403-0.041c-142.096 19.231-250.472 139.755-250.472 285.592 0 0.182 0 0.364 0 0.544v-0.028c0 406.531 330.754 737.286 737.286 737.286 0.154 0 0.335 0 0.516 0 145.837 0 266.36-108.377 285.427-248.985l0.165-1.489c0.387-2.988 0.607-6.444 0.607-9.95 0-33.447-20.044-62.211-48.775-74.938l-0.524-0.207zM737.285 942.079c-361.784-0.408-654.958-293.582-655.365-655.327v-0.038c-0.001-0.236-0.001-0.515-0.001-0.792 0-104.052 77.21-190.070 177.463-203.888l1.074-0.122c-0.010 0.092-0.015 0.198-0.015 0.307s0.005 0.215 0.017 0.32l-0.001-0.013 107.521 240.642-105.831 126.67c-1.020 1.169-1.983 2.456-2.843 3.814l-0.076 0.128c-8.329 12.614-13.288 28.091-13.288 44.727 0 12.972 3.014 25.238 8.382 36.139l-0.214-0.481c46.388 94.874 141.979 189.749 237.877 236.085 10.294 5.009 22.392 7.937 35.176 7.937 16.946 0 32.69-5.146 45.755-13.959l-0.291 0.186c1.435-0.972 2.67-1.914 3.85-2.918l-0.061 0.051 124.468-106.19 240.642 107.777s0.41 0 0.563 0c-13.777 101.525-99.901 178.947-204.108 178.947-0.244 0-0.488 0-0.732-0.001h0.038z"></path>
</svg>
