<!-- Generated by IcoMoon.io -->
<svg version="1.1" xmlns="http://www.w3.org/2000/svg" width="32" height="32" viewBox="0 0 32 32">
<title>printer</title>
<path d="M30.125 11.411v-2.974c0-1.551-1.262-2.813-2.813-2.813h-1.487l-5.35-5.35c-0.001-0.001-0.002-0.002-0.003-0.003-0.172-0.17-0.403-0.267-0.646-0.271-0.005 0-0.009-0.001-0.014-0.001h-13.25c-0.518 0-0.938 0.42-0.938 0.938v4.688h-0.938c-1.551 0-2.813 1.262-2.813 2.813v2.974c-1.091 0.387-1.875 1.429-1.875 2.651v11.375c0 1.551 1.262 2.813 2.813 2.813h2.813v2.813c0 0.518 0.42 0.937 0.938 0.937h18.875c0.518 0 0.937-0.42 0.937-0.937v-2.813h2.813c1.551 0 2.813-1.262 2.813-2.813v-11.375c0-1.222-0.784-2.264-1.875-2.651zM26.375 7.5h0.938c0.517 0 0.937 0.421 0.937 0.938v2.813h-1.875v-3.75zM20.75 3.201l2.424 2.424h-2.424v-2.424zM7.5 1.875h11.375v4.688c0 0.518 0.42 0.938 0.938 0.938h4.687v3.75h-17v-9.375zM3.75 8.438c0-0.517 0.421-0.938 0.938-0.938h0.938v3.75h-1.875v-2.813zM24.5 30.125h-17v-9.375h17v9.375zM30.125 25.437c0 0.517-0.421 0.937-0.938 0.937h-2.813v-5.625h0.938c0.518 0 0.937-0.42 0.937-0.937s-0.42-0.938-0.937-0.938h-22.625c-0.518 0-0.938 0.42-0.938 0.938s0.42 0.937 0.938 0.937h0.938v5.625h-2.813c-0.517 0-0.938-0.421-0.938-0.937v-11.375c0-0.517 0.421-0.938 0.938-0.938h26.375c0.517 0 0.938 0.421 0.938 0.938v11.375z"></path>
<path d="M21.687 22.625h-11.375c-0.518 0-0.938 0.42-0.938 0.937s0.42 0.937 0.938 0.937h11.375c0.518 0 0.938-0.42 0.938-0.937s-0.42-0.937-0.938-0.937zM21.687 26.375h-11.375c-0.518 0-0.938 0.42-0.938 0.938s0.42 0.937 0.938 0.937h11.375c0.518 0 0.938-0.42 0.938-0.937s-0.42-0.938-0.938-0.938zM6.563 15h-1.875c-0.518 0-0.938 0.42-0.938 0.937s0.42 0.937 0.938 0.937h1.875c0.518 0 0.938-0.42 0.938-0.937s-0.42-0.937-0.938-0.937z"></path>
</svg>
