<!-- Generated by IcoMoon.io -->
<svg version="1.1" xmlns="http://www.w3.org/2000/svg" width="32" height="32" viewBox="0 0 32 32">
<title>qr-code</title>
<path d="M1.428 0c-0.377 0.004-0.738 0.156-1.005 0.423s-0.419 0.627-0.423 1.005v7.812c0 0.775 0.652 1.428 1.428 1.428h7.812c0.377-0.004 0.738-0.156 1.005-0.423s0.419-0.627 0.423-1.005v-7.812c-0.004-0.377-0.156-0.738-0.423-1.005s-0.627-0.419-1.005-0.423h-7.812zM14.222 0v1.778h-1.778v1.778h1.778v5.333h-1.778v1.778h1.778v1.778h-7.111v1.778h1.778v1.778h-1.778v1.778h3.556v1.778h1.778v-1.778h5.333v-3.556h3.556v1.778h3.555v-1.778h-1.778v-1.778h-3.556v-7.111h-1.778v5.333h-1.778v-5.333h1.778v-1.778h-1.778v-3.556h-1.778zM17.777 3.556h1.778v-1.778h-1.778v1.778zM24.888 14.222h1.778v1.778h1.778v-3.556h-3.556v1.778zM21.332 16h-1.778v1.778h1.778v-1.778zM12.444 19.555v1.778h1.778v-1.778h-1.778zM14.222 21.333v1.778h1.778v-1.778h-1.778zM15.999 21.333h5.333v-1.778h-5.333v1.778zM15.999 23.111v3.555h3.555v-3.555h-3.556zM22.76 0c-0.377 0.004-0.738 0.156-1.005 0.423s-0.419 0.627-0.423 1.005v7.812c0 0.775 0.652 1.428 1.427 1.428h7.812c0.377-0.004 0.738-0.156 1.005-0.423s0.418-0.627 0.423-1.005v-7.812c-0.004-0.377-0.156-0.738-0.423-1.005s-0.628-0.419-1.005-0.423h-7.812zM1.778 1.778h7.111v7.115h-7.111v-7.115zM23.11 1.778h7.111v7.115h-7.111v-7.115zM3.556 3.556v3.556h3.556v-3.556h-3.556zM24.888 3.556v3.556h3.556v-3.556h-3.556zM0 12.444v3.556h1.778v-1.778h3.556v-1.778h-5.333zM1.778 16v1.778h1.778v-1.778h-1.778zM3.556 17.778v1.778h1.778v-1.778h-1.778zM1.778 17.778h-1.778v1.778h1.778v-1.778zM30.221 12.444v7.111h1.778v-7.111h-1.778zM10.667 14.222h1.778v1.778h-1.778v-1.778zM14.222 14.222h1.778v1.778h-1.778v-1.778zM23.11 17.778v3.556h1.778v-1.778h3.556v-1.778h-5.333zM1.428 21.333c-0.377 0.004-0.738 0.156-1.005 0.423s-0.419 0.628-0.423 1.005v7.812c0 0.775 0.652 1.427 1.428 1.427h7.812c0.377-0.004 0.738-0.156 1.005-0.423s0.419-0.628 0.423-1.005v-7.812c-0.004-0.377-0.156-0.738-0.423-1.005s-0.627-0.419-1.005-0.423h-7.812zM1.778 23.111h7.111v7.115h-7.111v-7.115zM23.11 23.111v1.778h1.778v-1.778h-1.778zM24.888 24.889v1.778h3.556v-1.778h1.778v3.556h1.778v-5.333h-5.333v1.778h-1.778zM30.221 28.445h-1.778v3.555h3.555v-1.778h-1.778v-1.778zM23.11 24.889h-1.778v7.111h1.778v-7.111zM3.556 24.889v3.556h3.556v-3.556h-3.556zM12.444 26.667v5.333h1.778v-1.778h1.778v-1.778h-1.778v-1.778h-1.778zM17.777 28.445v1.778h1.778v-1.778h-1.778zM24.888 28.445v1.778h1.778v-1.778h-1.778z"></path>
</svg>
