<!-- Generated by IcoMoon.io -->
<svg version="1.1" xmlns="http://www.w3.org/2000/svg" width="32" height="32" viewBox="0 0 32 32">
<title>receipt</title>
<path d="M16 32c-1.161 0-2.292-0.595-3.066-1.637l-1.503-2.009c-0.313-0.417-0.729-0.655-1.176-0.685-0.447-0.015-0.893 0.179-1.25 0.551l-0.848-0.759 0.819 0.759c-2.143 2.292-3.795 2.114-4.584 1.801-0.804-0.313-2.158-1.34-2.158-4.644v-16.759c0-6.608 1.905-8.618 8.141-8.618h11.252c6.236 0 8.141 2.009 8.141 8.618v16.759c0 3.289-1.354 4.316-2.158 4.644-0.789 0.313-2.426 0.491-4.584-1.801-0.357-0.387-0.789-0.595-1.265-0.551-0.447 0.030-0.878 0.268-1.191 0.685l-1.503 2.009c-0.774 1.042-1.905 1.637-3.066 1.637zM10.166 25.421c0.060 0 0.134 0 0.194 0 1.101 0.060 2.143 0.64 2.843 1.578l1.503 2.009c0.729 0.967 1.846 0.967 2.575 0l1.503-2.009c0.714-0.938 1.741-1.518 2.858-1.578 1.101-0.060 2.203 0.402 3.007 1.265 1.131 1.206 1.875 1.354 2.128 1.25 0.357-0.149 0.744-1.012 0.744-2.56v-16.759c0-5.373-0.938-6.385-5.909-6.385h-11.237c-4.971 0-5.909 1.012-5.909 6.385v16.759c0 1.563 0.387 2.426 0.744 2.56 0.253 0.104 0.997-0.045 2.128-1.25 0.804-0.819 1.801-1.265 2.828-1.265z"></path>
<path d="M21.953 9.674h-11.907c-0.61 0-1.116-0.506-1.116-1.116s0.506-1.116 1.116-1.116h11.907c0.61 0 1.116 0.506 1.116 1.116s-0.506 1.116-1.116 1.116z"></path>
<path d="M20.465 15.628h-8.93c-0.61 0-1.116-0.506-1.116-1.116s0.506-1.116 1.116-1.116h8.93c0.61 0 1.116 0.506 1.116 1.116s-0.506 1.116-1.116 1.116z"></path>
</svg>
