<!-- Generated by IcoMoon.io -->
<svg version="1.1" xmlns="http://www.w3.org/2000/svg" width="32" height="32" viewBox="0 0 32 32">
<title>refresh</title>
<path d="M30.667 14.668c-0.738 0-1.332 0.594-1.332 1.332 0 7.353-5.982 13.336-13.336 13.336s-13.335-5.982-13.335-13.336c0-7.353 5.982-13.335 13.335-13.335 4.016 0 7.739 1.77 10.26 4.813h-4.604c-0.738 0-1.332 0.594-1.332 1.332s0.594 1.332 1.332 1.332h7.484c0.738 0 1.332-0.594 1.332-1.332v-7.478c0-0.738-0.594-1.332-1.332-1.332s-1.332 0.594-1.332 1.332v3.853c-3.011-3.285-7.249-5.185-11.807-5.185-8.823 0-16 7.177-16 16s7.177 16 16 16c8.823 0 16-7.177 16-16 0-0.738-0.594-1.332-1.332-1.332z"></path>
</svg>
