<!-- Generated by IcoMoon.io -->
<svg version="1.1" xmlns="http://www.w3.org/2000/svg" width="1024" height="1024" viewBox="0 0 1024 1024">
<title></title>
<g id="icomoon-ignore">
</g>
<path d="M477.092 674.908v46.549h-69.818v-46.549c0-12.836 10.438-23.269 23.273-23.269h23.273c12.835 0 23.272 10.433 23.272 23.269zM1024 535.271v372.366c0 64.16-52.202 116.362-116.362 116.362h-791.274c-64.163 0-116.364-52.202-116.364-116.362v-372.366c0-64.162 52.201-116.363 116.364-116.363h105.181l216.042-270.127c-12.112-16.041-18.669-35.591-18.676-55.691 0-51.328 41.762-93.091 93.093-93.091 51.325 0 93.087 41.763 93.087 93.091-0.005 20.1-6.563 39.651-18.672 55.691l216.039 270.127h105.18c64.16 0 116.362 52.201 116.362 116.363zM281.136 418.908h461.732l-192.732-240.989c-11.651 5.26-24.542 8.263-38.132 8.263-13.594 0-26.486-3.002-38.135-8.263l-192.733 240.989zM325.82 756.366c0-32.083-26.1-58.184-58.183-58.184h-46.545c-3.086 0-6.046-1.228-8.228-3.407-2.182-2.184-3.408-5.145-3.408-8.228v-23.275c0-3.088 1.226-6.049 3.408-8.228 2.182-2.184 5.141-3.407 8.228-3.407h69.818c6.172 0 12.092-2.452 16.456-6.82 4.365-4.363 6.816-10.283 6.816-16.455s-2.452-12.093-6.816-16.455c-4.365-4.368-10.284-6.82-16.456-6.82h-69.818c-32.081 0-58.183 26.101-58.183 58.184v23.275c0 32.077 26.1 58.178 58.183 58.178h46.545c3.086 0 6.046 1.228 8.229 3.407 2.182 2.184 3.408 5.145 3.408 8.233v23.269c0 3.088-1.226 6.049-3.408 8.228-2.182 2.184-5.141 3.412-8.229 3.412h-69.818c-6.172 0-12.092 2.447-16.456 6.814-4.365 4.363-6.816 10.283-6.816 16.455s2.451 12.093 6.816 16.455c4.365 4.368 10.284 6.82 16.456 6.82h69.818c32.081 0 58.183-26.101 58.183-58.184v-23.269zM523.638 674.908c0-38.506-31.313-69.818-69.818-69.818h-23.273c-38.505 0-69.818 31.312-69.818 69.818v139.636c0 6.172 2.452 12.093 6.816 16.455 4.365 4.368 10.284 6.82 16.456 6.82s12.092-2.452 16.456-6.82c4.365-4.363 6.816-10.283 6.816-16.455v-46.544h69.818v46.544c0 6.172 2.452 12.093 6.816 16.455 4.365 4.368 10.284 6.82 16.456 6.82s12.091-2.452 16.459-6.82c4.363-4.363 6.814-10.283 6.814-16.455v-139.636zM698.183 814.544c0-6.172-2.452-12.093-6.814-16.455-4.368-4.368-10.288-6.814-16.461-6.814h-58.178v-162.911c0-6.172-2.452-12.093-6.82-16.455-4.363-4.368-10.283-6.82-16.455-6.82s-12.093 2.452-16.455 6.82c-4.368 4.363-6.82 10.283-6.82 16.455v186.18c0 6.172 2.452 12.093 6.82 16.455 4.363 4.368 10.283 6.82 16.455 6.82h81.453c6.172 0 12.093-2.452 16.461-6.82 4.363-4.363 6.814-10.283 6.814-16.455zM768.002 698.182v-46.544h69.818c6.172 0 12.093-2.452 16.455-6.82 4.368-4.363 6.82-10.283 6.82-16.455s-2.452-12.093-6.82-16.455c-4.363-4.368-10.283-6.82-16.455-6.82h-93.093c-6.172 0-12.093 2.452-16.455 6.82-4.363 4.363-6.814 10.283-6.814 16.455v186.18c0 6.172 2.452 12.093 6.814 16.455 4.363 4.368 10.283 6.82 16.455 6.82h93.093c6.172 0 12.093-2.452 16.455-6.82 4.368-4.363 6.82-10.283 6.82-16.455s-2.452-12.093-6.82-16.455c-4.363-4.368-10.283-6.814-16.455-6.814h-69.818v-46.549h46.544c6.172 0 12.093-2.452 16.461-6.814 4.363-4.368 6.814-10.283 6.814-16.455 0-6.178-2.452-12.093-6.814-16.461-4.368-4.363-10.288-6.814-16.461-6.814h-46.544z"></path>
</svg>
