<!-- Generated by IcoMoon.io -->
<svg version="1.1" xmlns="http://www.w3.org/2000/svg" width="32" height="32" viewBox="0 0 32 32">
<title>search-emoji</title>
<path d="M21.511 0c-5.784 0-10.489 4.705-10.489 10.489 0 2.724 1.044 5.208 2.752 7.074l-1.936 1.936-0.023-0.023c-0.278-0.278-0.647-0.431-1.040-0.431s-0.762 0.153-1.040 0.431l-9.158 9.158c-0.769 0.769-0.769 2.020 0 2.789 0.384 0.384 0.889 0.577 1.394 0.577s1.010-0.192 1.394-0.577l9.158-9.158c0.278-0.278 0.431-0.647 0.431-1.040s-0.153-0.762-0.431-1.040l-0.023-0.023 1.936-1.936c1.867 1.708 4.351 2.752 7.074 2.752 5.784 0 10.489-4.705 10.489-10.489s-4.705-10.489-10.489-10.489zM2.702 30.76c-0.403 0.403-1.059 0.403-1.463 0s-0.403-1.060 0-1.463l7.692-7.692 1.463 1.463-7.692 7.692zM11.86 21.603l-0.803 0.803-1.463-1.463 0.803-0.803c0.101-0.101 0.235-0.156 0.377-0.156s0.276 0.056 0.377 0.156l0.709 0.709c0.050 0.049 0.089 0.108 0.116 0.173s0.041 0.134 0.040 0.204c0 0.070-0.013 0.14-0.040 0.204s-0.066 0.123-0.116 0.173zM21.511 20.041c-5.267 0-9.552-4.285-9.552-9.552s4.285-9.552 9.552-9.552c5.267 0 9.552 4.285 9.552 9.552s-4.285 9.552-9.552 9.552z"></path>
<path d="M27.51 4.489c-3.017-3.017-7.831-3.317-11.199-0.698-0.049 0.038-0.089 0.085-0.12 0.138s-0.050 0.113-0.058 0.174-0.003 0.123 0.013 0.182c0.016 0.059 0.044 0.115 0.082 0.163s0.085 0.089 0.138 0.12 0.112 0.050 0.174 0.058c0.061 0.008 0.123 0.003 0.182-0.013s0.115-0.044 0.164-0.082c2.995-2.329 7.277-2.062 9.96 0.621s2.95 6.965 0.621 9.96c-0.054 0.069-0.087 0.152-0.096 0.239s0.007 0.175 0.045 0.254c0.038 0.079 0.098 0.145 0.173 0.192s0.16 0.071 0.248 0.071c0.071 0 0.142-0.016 0.206-0.048s0.12-0.077 0.164-0.134c2.619-3.367 2.319-8.181-0.698-11.198zM26.134 16.447c-1.365 1.062-2.997 1.584-4.624 1.584-1.942 0-3.876-0.745-5.336-2.205-2.683-2.683-2.95-6.965-0.621-9.96 0.075-0.098 0.108-0.222 0.093-0.345s-0.079-0.234-0.177-0.31-0.221-0.11-0.344-0.095c-0.123 0.015-0.235 0.078-0.311 0.175-2.619 3.367-2.319 8.182 0.698 11.199 1.642 1.642 3.816 2.479 6 2.479 1.829 0 3.664-0.587 5.199-1.781 0.049-0.038 0.089-0.085 0.12-0.138s0.050-0.113 0.058-0.174c0.008-0.061 0.003-0.123-0.013-0.182s-0.044-0.115-0.082-0.164c-0.038-0.049-0.085-0.089-0.138-0.12s-0.112-0.050-0.174-0.058c-0.061-0.008-0.123-0.003-0.182 0.013s-0.115 0.044-0.164 0.082z"></path>
<path d="M17.672 10.32c0.091 0.092 0.211 0.137 0.331 0.137s0.24-0.046 0.331-0.137l0.671-0.671 0.671 0.671c0.092 0.092 0.212 0.137 0.331 0.137s0.24-0.046 0.331-0.137c0.088-0.088 0.137-0.207 0.137-0.331s-0.049-0.244-0.137-0.331l-0.671-0.671 0.671-0.671c0.183-0.183 0.183-0.48 0-0.663s-0.48-0.183-0.663 0l-0.671 0.671-0.671-0.671c-0.088-0.088-0.207-0.137-0.331-0.137s-0.244 0.049-0.331 0.137c-0.088 0.088-0.137 0.207-0.137 0.331s0.049 0.244 0.137 0.331l0.671 0.671-0.671 0.671c-0.088 0.088-0.137 0.207-0.137 0.331s0.049 0.244 0.137 0.331zM22.682 10.32c0.092 0.092 0.212 0.137 0.331 0.137s0.24-0.046 0.331-0.137l0.671-0.671 0.671 0.671c0.091 0.092 0.212 0.137 0.331 0.137s0.24-0.046 0.331-0.137c0.088-0.088 0.137-0.207 0.137-0.331s-0.049-0.244-0.137-0.331l-0.671-0.671 0.671-0.671c0.183-0.183 0.183-0.48 0-0.663s-0.48-0.183-0.663 0l-0.671 0.671-0.671-0.671c-0.088-0.088-0.207-0.137-0.331-0.137s-0.244 0.049-0.331 0.137c-0.088 0.088-0.137 0.207-0.137 0.331s0.049 0.244 0.137 0.331l0.671 0.671-0.671 0.671c-0.044 0.044-0.078 0.095-0.102 0.152s-0.036 0.118-0.036 0.179c0 0.062 0.012 0.123 0.036 0.179s0.058 0.109 0.102 0.152zM18.674 13.665c-0.086 0.088-0.133 0.207-0.132 0.33s0.050 0.241 0.138 0.328c0.087 0.087 0.205 0.136 0.328 0.137s0.242-0.047 0.33-0.133c0.548-0.549 1.341-0.864 2.173-0.864s1.625 0.315 2.173 0.864c0.044 0.044 0.095 0.078 0.152 0.102s0.118 0.036 0.179 0.036c0.062 0 0.123-0.012 0.179-0.036s0.109-0.058 0.152-0.102c0.088-0.088 0.137-0.207 0.138-0.331s-0.049-0.244-0.137-0.332c-0.723-0.724-1.757-1.14-2.837-1.14s-2.114 0.415-2.837 1.14z"></path>
</svg>
