<!-- Generated by IcoMoon.io -->
<svg version="1.1" xmlns="http://www.w3.org/2000/svg" width="32" height="32" viewBox="0 0 32 32">
<title>search-normal</title>
<path d="M15.258 30.512c-8.41 0-15.256-6.847-15.256-15.256s6.847-15.256 15.256-15.256c8.41 0 15.256 6.847 15.256 15.256s-6.847 15.256-15.256 15.256zM15.258 2.233c-7.189 0-13.024 5.849-13.024 13.024s5.835 13.024 13.024 13.024c7.189 0 13.024-5.849 13.024-13.024s-5.835-13.024-13.024-13.024z"></path>
<path d="M30.886 32c-0.283 0-0.566-0.104-0.789-0.327l-2.977-2.977c-0.432-0.432-0.432-1.146 0-1.578s1.146-0.432 1.578 0l2.977 2.977c0.432 0.432 0.432 1.146 0 1.578-0.223 0.223-0.506 0.327-0.789 0.327z"></path>
</svg>
