<!-- Generated by IcoMoon.io -->
<svg version="1.1" xmlns="http://www.w3.org/2000/svg" width="32" height="32" viewBox="0 0 32 32">
<title>size</title>
<path d="M15.628 32h-6.698c-6.177 0-8.93-2.753-8.93-8.93v-6.698c0-6.177 2.753-8.93 8.93-8.93h6.698c6.177 0 8.93 2.753 8.93 8.93v6.698c0 6.177-2.753 8.93-8.93 8.93zM8.93 9.674c-4.941 0-6.698 1.756-6.698 6.698v6.698c0 4.941 1.756 6.698 6.698 6.698h6.698c4.941 0 6.698-1.756 6.698-6.698v-6.698c0-4.941-1.756-6.698-6.698-6.698h-6.698z"></path>
<path d="M25.153 18.605h-1.712c-0.61 0-1.116-0.506-1.116-1.116v-1.116c0-4.941-1.756-6.698-6.698-6.698h-1.116c-0.61 0-1.116-0.506-1.116-1.116v-1.712c0-4.733 2.114-6.847 6.847-6.847h4.912c4.733 0 6.847 2.114 6.847 6.847v4.912c0 4.733-2.114 6.847-6.847 6.847zM24.558 16.372h0.595c3.498 0 4.614-1.116 4.614-4.614v-4.912c0-3.498-1.116-4.614-4.614-4.614h-4.912c-3.498 0-4.614 1.116-4.614 4.614v0.595c6.177 0 8.93 2.753 8.93 8.93z"></path>
</svg>
