<!-- Generated by IcoMoon.io -->
<svg version="1.1" xmlns="http://www.w3.org/2000/svg" width="32" height="32" viewBox="0 0 32 32">
<title>sms</title>
<path d="M23.442 29.767h-14.884c-5.433 0-8.558-3.126-8.558-8.558v-10.419c0-5.433 3.126-8.558 8.558-8.558h14.884c5.433 0 8.558 3.126 8.558 8.558v10.419c0 5.433-3.126 8.558-8.558 8.558zM8.558 4.465c-4.257 0-6.326 2.069-6.326 6.326v10.419c0 4.257 2.069 6.326 6.326 6.326h14.884c4.257 0 6.326-2.069 6.326-6.326v-10.419c0-4.257-2.069-6.326-6.326-6.326h-14.884z"></path>
<path d="M15.998 17.295c-1.25 0-2.515-0.387-3.483-1.176l-4.659-3.721c-0.476-0.387-0.566-1.087-0.179-1.563s1.087-0.566 1.563-0.179l4.659 3.721c1.131 0.908 3.051 0.908 4.182 0l4.659-3.721c0.476-0.387 1.191-0.313 1.563 0.179 0.387 0.476 0.313 1.191-0.179 1.563l-4.659 3.721c-0.953 0.789-2.218 1.176-3.468 1.176z"></path>
</svg>
