<!-- Generated by IcoMoon.io -->
<svg version="1.1" xmlns="http://www.w3.org/2000/svg" width="32" height="32" viewBox="0 0 32 32">
<title>star</title>
<path d="M24.431 31.893c-0.789 0-1.801-0.253-3.067-0.997l-4.451-2.635c-0.462-0.268-1.355-0.268-1.801 0l-4.466 2.635c-2.635 1.563-4.184 0.938-4.883 0.432-0.685-0.506-1.757-1.801-1.057-4.779l1.057-4.571c0.119-0.476-0.119-1.295-0.476-1.653l-3.692-3.692c-1.846-1.846-1.697-3.424-1.444-4.198s1.057-2.144 3.618-2.576l4.749-0.789c0.447-0.074 1.087-0.551 1.28-0.953l2.635-5.255c1.191-2.397 2.754-2.754 3.573-2.754s2.382 0.357 3.573 2.754l2.62 5.241c0.208 0.402 0.849 0.878 1.295 0.953l4.749 0.789c2.576 0.432 3.38 1.801 3.618 2.576s0.387 2.352-1.444 4.198l-3.692 3.707c-0.357 0.357-0.581 1.161-0.476 1.653l1.057 4.571c0.685 2.978-0.372 4.273-1.057 4.779-0.372 0.268-0.968 0.566-1.816 0.566zM16.005 25.819c0.73 0 1.459 0.179 2.040 0.521l4.451 2.635c1.295 0.774 2.114 0.774 2.427 0.551s0.536-1.012 0.208-2.471l-1.057-4.571c-0.283-1.236 0.179-2.829 1.072-3.737l3.692-3.692c0.73-0.73 1.057-1.444 0.908-1.935-0.164-0.491-0.849-0.893-1.861-1.057l-4.749-0.789c-1.146-0.194-2.397-1.117-2.918-2.159l-2.62-5.241c-0.476-0.953-1.072-1.519-1.593-1.519s-1.117 0.566-1.578 1.519l-2.635 5.241c-0.521 1.042-1.772 1.965-2.918 2.159l-4.734 0.789c-1.012 0.164-1.697 0.566-1.861 1.057s0.179 1.221 0.908 1.935l3.692 3.692c0.893 0.893 1.355 2.501 1.072 3.737l-1.057 4.571c-0.342 1.474-0.104 2.248 0.208 2.471s1.117 0.208 2.427-0.551l4.451-2.635c0.566-0.342 1.295-0.521 2.025-0.521z"></path>
</svg>
