<!-- Generated by IcoMoon.io -->
<svg version="1.1" xmlns="http://www.w3.org/2000/svg" width="1024" height="1024" viewBox="0 0 1024 1024">
<title></title>
<g id="icomoon-ignore">
</g>
<path d="M512 981.333c-259.206 0-469.333-210.129-469.333-469.333 0-259.206 210.128-469.333 469.333-469.333 259.204 0 469.333 210.128 469.333 469.333s-210.129 469.333-469.333 469.333zM512 1024c282.769 0 512-229.231 512-512s-229.231-512-512-512c-282.77 0-512 229.23-512 512s229.23 512 512 512z"></path>
<path d="M512.021 573.427c33.933 0 61.44-27.507 61.44-61.44s-27.507-61.44-61.44-61.44c-33.929 0-61.44 27.507-61.44 61.44s27.511 61.44 61.44 61.44z"></path>
<path d="M512.021 769.254c33.933 0 61.44-27.507 61.44-61.44s-27.507-61.44-61.44-61.44c-33.929 0-61.44 27.507-61.44 61.44s27.511 61.44 61.44 61.44z"></path>
<path d="M512.021 377.588c33.933 0 61.44-27.508 61.44-61.44s-27.507-61.44-61.44-61.44c-33.929 0-61.44 27.508-61.44 61.44s27.511 61.44 61.44 61.44z"></path>
</svg>
