<!-- Generated by IcoMoon.io -->
<svg version="1.1" xmlns="http://www.w3.org/2000/svg" width="32" height="32" viewBox="0 0 32 32">
<title>ticket-star</title>
<path d="M23.438 29.029h-14.89c-6.328 0-8.398-1.891-8.547-7.787 0-0.298 0.104-0.596 0.313-0.804s0.491-0.342 0.804-0.342c2.248 0 4.080-1.846 4.080-4.095s-1.831-4.095-4.080-4.095c-0.298 0-0.581-0.119-0.804-0.342s-0.328-0.506-0.313-0.804c0.149-5.896 2.219-7.787 8.547-7.787h14.89c6.567 0 8.562 1.995 8.562 8.562v8.934c0 6.566-1.995 8.562-8.562 8.562zM2.28 22.224c0.253 3.782 1.534 4.571 6.269 4.571h14.89c5.331 0 6.328-1.012 6.328-6.328v-8.934c0-5.316-0.998-6.328-6.328-6.328h-14.89c-4.735 0-6.016 0.804-6.269 4.571 2.933 0.566 5.152 3.142 5.152 6.224s-2.219 5.658-5.152 6.224z"></path>
<path d="M11.525 10.416c-0.61 0-1.117-0.506-1.117-1.117v-5.212c0-0.61 0.506-1.117 1.117-1.117s1.117 0.506 1.117 1.117v5.212c0 0.61-0.506 1.117-1.117 1.117z"></path>
<path d="M11.525 29.029c-0.61 0-1.117-0.506-1.117-1.117v-5.212c0-0.61 0.506-1.117 1.117-1.117s1.117 0.506 1.117 1.117v5.212c0 0.61-0.506 1.117-1.117 1.117z"></path>
<path d="M17.541 21.435c-0.357 0-0.715-0.119-1.012-0.328-0.536-0.387-0.804-1.042-0.685-1.697l0.313-1.772-1.295-1.266c-0.476-0.462-0.64-1.147-0.447-1.772 0.208-0.625 0.745-1.087 1.4-1.176l1.787-0.268 0.804-1.623c0.298-0.596 0.893-0.968 1.549-0.968 0.67 0 1.266 0.372 1.549 0.968l0.804 1.623 1.787 0.268c0.655 0.089 1.191 0.551 1.4 1.176s0.030 1.31-0.447 1.772l-1.295 1.266 0.313 1.772c0.119 0.655-0.149 1.31-0.685 1.697s-1.236 0.432-1.817 0.134l-1.593-0.834-1.608 0.834c-0.253 0.134-0.536 0.194-0.819 0.194zM17.139 15.479l0.759 0.745c0.417 0.402 0.596 0.968 0.506 1.534l-0.179 1.042 0.938-0.491c0.506-0.268 1.102-0.268 1.608 0l0.938 0.491-0.179-1.042c-0.089-0.581 0.089-1.147 0.506-1.534l0.759-0.745-1.042-0.149c-0.566-0.089-1.057-0.447-1.31-0.953l-0.462-0.953-0.462 0.953c-0.253 0.506-0.744 0.864-1.31 0.953l-1.072 0.149z"></path>
</svg>
