<!-- Generated by IcoMoon.io -->
<svg version="1.1" xmlns="http://www.w3.org/2000/svg" width="32" height="32" viewBox="0 0 32 32">
<title>tick-square</title>
<path d="M20.465 32h-8.93c-8.082 0-11.535-3.453-11.535-11.535v-8.93c0-8.082 3.453-11.535 11.535-11.535h8.93c8.082 0 11.535 3.453 11.535 11.535v8.93c0 8.082-3.453 11.535-11.535 11.535zM11.535 2.233c-6.861 0-9.302 2.441-9.302 9.302v8.93c0 6.861 2.441 9.302 9.302 9.302h8.93c6.861 0 9.302-2.441 9.302-9.302v-8.93c0-6.861-2.441-9.302-9.302-9.302h-8.93z"></path>
<path d="M13.886 21.329c-0.298 0-0.58-0.119-0.789-0.327l-4.212-4.212c-0.432-0.432-0.432-1.146 0-1.578s1.146-0.432 1.578 0l3.423 3.423 7.65-7.65c0.432-0.432 1.146-0.432 1.578 0s0.432 1.146 0 1.578l-8.439 8.439c-0.208 0.208-0.491 0.327-0.789 0.327z"></path>
</svg>
