<!-- Generated by IcoMoon.io -->
<svg version="1.1" xmlns="http://www.w3.org/2000/svg" width="32" height="32" viewBox="0 0 32 32">
<title>timer-start</title>
<path d="M16 18.605c-0.61 0-1.116-0.506-1.116-1.116v-7.442c0-0.61 0.506-1.116 1.116-1.116s1.116 0.506 1.116 1.116v7.442c0 0.61-0.506 1.116-1.116 1.116z"></path>
<path d="M16 32c-7.799 0-14.139-6.34-14.139-14.139s6.34-14.139 14.139-14.139c7.799 0 14.139 6.34 14.139 14.139 0 0.61-0.506 1.116-1.116 1.116s-1.116-0.506-1.116-1.116c0-6.564-5.343-11.907-11.907-11.907s-11.907 5.343-11.907 11.907c0 6.564 5.343 11.907 11.907 11.907 0.61 0 1.116 0.506 1.116 1.116s-0.506 1.116-1.116 1.116z"></path>
<path d="M20.465 2.233h-8.93c-0.61 0-1.116-0.506-1.116-1.116s0.506-1.116 1.116-1.116h8.93c0.61 0 1.116 0.506 1.116 1.116s-0.506 1.116-1.116 1.116z"></path>
<path d="M22.177 30.914c-0.521 0-0.997-0.119-1.429-0.372-0.982-0.566-1.548-1.712-1.548-3.14v-3.438c0-1.429 0.566-2.575 1.548-3.14s2.247-0.476 3.483 0.223l2.977 1.727c1.235 0.714 1.95 1.771 1.95 2.902s-0.714 2.188-1.95 2.902l-2.977 1.727c-0.685 0.402-1.384 0.61-2.054 0.61zM22.192 22.668c-0.119 0-0.238 0.030-0.327 0.074-0.268 0.149-0.432 0.61-0.432 1.206v3.438c0 0.595 0.164 1.057 0.432 1.206s0.744 0.074 1.25-0.223l2.977-1.727c0.521-0.298 0.833-0.67 0.833-0.967s-0.313-0.67-0.833-0.967l-2.977-1.727c-0.342-0.208-0.67-0.313-0.923-0.313z"></path>
</svg>
