<!-- Generated by IcoMoon.io -->
<svg version="1.1" xmlns="http://www.w3.org/2000/svg" width="32" height="32" viewBox="0 0 32 32">
<title>timer-1</title>
<path d="M16 32c-7.799 0-14.139-6.34-14.139-14.139s6.34-14.139 14.139-14.139c7.799 0 14.139 6.34 14.139 14.139s-6.34 14.139-14.139 14.139zM16 5.954c-6.564 0-11.907 5.343-11.907 11.907s5.343 11.907 11.907 11.907c6.564 0 11.907-5.343 11.907-11.907s-5.343-11.907-11.907-11.907z"></path>
<path d="M16 18.605c-0.61 0-1.116-0.506-1.116-1.116v-7.442c0-0.61 0.506-1.116 1.116-1.116s1.116 0.506 1.116 1.116v7.442c0 0.61-0.506 1.116-1.116 1.116z"></path>
<path d="M20.465 2.233h-8.93c-0.61 0-1.116-0.506-1.116-1.116s0.506-1.116 1.116-1.116h8.93c0.61 0 1.116 0.506 1.116 1.116s-0.506 1.116-1.116 1.116z"></path>
</svg>
