<!-- Generated by IcoMoon.io -->
<svg version="1.1" xmlns="http://www.w3.org/2000/svg" width="32" height="32" viewBox="0 0 32 32">
<title>trash</title>
<path d="M29.403 8.156c-0.030 0-0.074 0-0.119 0-7.873-0.789-15.732-1.087-23.516-0.298l-3.036 0.298c-0.625 0.060-1.176-0.387-1.235-1.012s0.387-1.161 0.997-1.22l3.036-0.298c7.918-0.804 15.94-0.491 23.978 0.298 0.61 0.060 1.057 0.61 0.997 1.22-0.045 0.58-0.536 1.012-1.101 1.012z"></path>
<path d="M10.8 6.653c-0.060 0-0.119 0-0.194-0.015-0.595-0.104-1.012-0.685-0.908-1.28l0.327-1.95c0.238-1.429 0.566-3.408 4.033-3.408h3.9c3.483 0 3.81 2.054 4.033 3.423l0.327 1.935c0.104 0.61-0.313 1.191-0.908 1.28-0.61 0.104-1.191-0.313-1.28-0.908l-0.327-1.935c-0.208-1.295-0.253-1.548-1.831-1.548h-3.9c-1.578 0-1.607 0.208-1.831 1.533l-0.342 1.935c-0.089 0.551-0.566 0.938-1.101 0.938z"></path>
<path d="M20.786 32h-9.555c-5.194 0-5.403-2.873-5.566-5.194l-0.967-14.988c-0.045-0.61 0.432-1.146 1.042-1.191 0.625-0.030 1.146 0.432 1.191 1.042l0.967 14.988c0.164 2.262 0.223 3.111 3.334 3.111h9.555c3.126 0 3.185-0.848 3.334-3.111l0.967-14.988c0.045-0.61 0.58-1.072 1.191-1.042 0.61 0.045 1.087 0.566 1.042 1.191l-0.967 14.988c-0.164 2.322-0.372 5.194-5.566 5.194z"></path>
<path d="M18.479 23.814h-4.956c-0.61 0-1.116-0.506-1.116-1.116s0.506-1.116 1.116-1.116h4.956c0.61 0 1.116 0.506 1.116 1.116s-0.506 1.116-1.116 1.116z"></path>
<path d="M19.729 17.86h-7.442c-0.61 0-1.116-0.506-1.116-1.116s0.506-1.116 1.116-1.116h7.442c0.61 0 1.116 0.506 1.116 1.116s-0.506 1.116-1.116 1.116z"></path>
</svg>
