<!-- Generated by IcoMoon.io -->
<svg version="1.1" xmlns="http://www.w3.org/2000/svg" width="1024" height="1024" viewBox="0 0 1024 1024">
<path d="M960 512v256c0 17.673-14.327 32-32 32v0h-256c-17.673 0-32-14.327-32-32s14.327-32 32-32v0h178.76l-306.76-306.76-137.36 137.4c-5.792 5.798-13.797 9.385-22.64 9.385s-16.848-3.587-22.64-9.385v0l-288-288c-5.794-5.794-9.378-13.799-9.378-22.64 0-17.683 14.335-32.018 32.018-32.018 8.841 0 16.846 3.584 22.64 9.378l265.36 265.4 137.36-137.4c5.792-5.798 13.797-9.385 22.64-9.385s16.848 3.587 22.64 9.385v0l329.36 329.4v-178.76c0-17.673 14.327-32 32-32s32 14.327 32 32v0z"></path>
</svg>
