<!-- Generated by IcoMoon.io -->
<svg version="1.1" xmlns="http://www.w3.org/2000/svg" width="32" height="32" viewBox="0 0 32 32">
<title>user-edit</title>
<path d="M14.951 17.116c-4.718 0-8.558-3.84-8.558-8.558s3.84-8.558 8.558-8.558c4.718 0 8.558 3.84 8.558 8.558s-3.84 8.558-8.558 8.558zM14.951 2.232c-3.483 0-6.326 2.843-6.326 6.326s2.843 6.326 6.326 6.326c3.483 0 6.326-2.843 6.326-6.326s-2.843-6.326-6.326-6.326z"></path>
<path d="M20.636 32c-0.566 0-1.101-0.208-1.488-0.595-0.461-0.461-0.67-1.131-0.566-1.831l0.283-2.009c0.074-0.521 0.387-1.131 0.759-1.518l5.269-5.269c2.114-2.114 3.974-0.908 4.882 0 0.774 0.774 1.176 1.607 1.176 2.441 0 0.848-0.387 1.637-1.176 2.426l-5.269 5.269c-0.372 0.372-0.997 0.685-1.518 0.759l-2.009 0.283c-0.119 0.030-0.223 0.045-0.342 0.045zM27.319 21.834c-0.268 0-0.506 0.179-0.848 0.521l-5.269 5.269c-0.045 0.045-0.119 0.194-0.119 0.253l-0.268 1.86 1.86-0.268c0.060-0.015 0.208-0.089 0.253-0.134l5.269-5.269c0.238-0.238 0.521-0.58 0.521-0.848 0-0.223-0.179-0.536-0.521-0.863-0.357-0.357-0.625-0.521-0.878-0.521z"></path>
<path d="M28.228 26.746c-0.104 0-0.208-0.015-0.298-0.044-1.965-0.551-3.527-2.114-4.078-4.078-0.164-0.595 0.179-1.206 0.774-1.369s1.206 0.179 1.369 0.774c0.342 1.22 1.31 2.188 2.53 2.53 0.595 0.164 0.938 0.789 0.774 1.369-0.134 0.491-0.58 0.818-1.072 0.818z"></path>
<path d="M2.166 32c-0.61 0-1.116-0.506-1.116-1.116 0-6.355 6.236-11.535 13.901-11.535 1.622 0 3.23 0.238 4.733 0.685 0.595 0.179 0.923 0.804 0.744 1.384-0.179 0.595-0.804 0.923-1.384 0.744-1.31-0.387-2.679-0.595-4.093-0.595-6.43 0-11.669 4.167-11.669 9.302 0 0.625-0.506 1.131-1.116 1.131z"></path>
</svg>
