<!-- Generated by IcoMoon.io -->
<svg version="1.1" xmlns="http://www.w3.org/2000/svg" width="32" height="32" viewBox="0 0 32 32">
<title>user</title>
<path d="M16 17.116c-4.718 0-8.558-3.84-8.558-8.558s3.84-8.558 8.558-8.558c4.718 0 8.558 3.84 8.558 8.558s-3.84 8.558-8.558 8.558zM16 2.232c-3.483 0-6.326 2.843-6.326 6.326s2.843 6.326 6.326 6.326c3.483 0 6.326-2.843 6.326-6.326s-2.843-6.326-6.326-6.326z"></path>
<path d="M28.785 32c-0.61 0-1.116-0.506-1.116-1.116 0-5.135-5.239-9.302-11.669-9.302s-11.669 4.167-11.669 9.302c0 0.61-0.506 1.116-1.116 1.116s-1.116-0.506-1.116-1.116c0-6.355 6.236-11.535 13.901-11.535s13.901 5.18 13.901 11.535c0 0.61-0.506 1.116-1.116 1.116z"></path>
</svg>
